<svg width="441" height="280" viewBox="0 0 441 280" fill="none" xmlns="http://www.w3.org/2000/svg">
<path d="M432.6 280H8.59961C4.19961 280 0.599609 276.4 0.599609 272V8C0.599609 3.6 4.19961 0 8.59961 0H432.6C437 0 440.6 3.6 440.6 8V272C440.6 276.4 437 280 432.6 280Z" fill="black"/>
<path d="M86.1304 108.844C80.0104 111.445 73.2019 118.713 71.0599 127.893C68.3824 139.444 79.6279 144.34 80.5459 142.734C81.6169 140.821 78.5569 140.209 77.8684 134.242C77.0269 126.516 80.6224 117.795 85.2124 114.046C86.0539 113.358 86.0539 114.352 86.0539 116.112C86.0539 119.401 85.9009 148.548 85.9009 154.668C85.9009 162.93 85.5949 165.531 84.9829 168.055C84.3709 170.656 83.3764 172.416 84.1414 173.104C84.9829 173.869 88.5784 172.033 90.6439 169.126C93.1684 165.607 94.0099 161.476 94.1629 156.886C94.3159 151.378 94.3159 142.657 94.3159 137.761C94.3159 133.171 94.3924 119.86 94.2394 111.828C94.1629 109.839 88.7314 107.773 86.1304 108.844ZM304.691 147.477C304.461 151.761 303.543 155.127 302.396 157.498C300.101 162.088 295.358 163.465 293.369 156.886C292.298 153.291 292.221 147.324 292.986 142.275C293.751 137.149 296.046 133.324 299.718 133.707C303.39 134.089 305.073 138.756 304.691 147.477ZM243.108 174.099C243.032 181.213 241.961 187.486 239.513 189.246C236.07 191.847 231.557 189.858 232.475 184.656C233.316 180.066 237.294 175.323 243.108 169.585C243.108 169.662 243.108 170.962 243.108 174.099ZM242.114 147.4C241.884 151.302 240.89 155.203 239.819 157.422C237.524 162.012 232.781 163.465 230.792 156.81C229.415 152.296 229.797 146.482 230.409 142.81C231.251 138.067 233.393 133.63 237.141 133.63C240.89 133.707 242.649 137.761 242.114 147.4ZM206.465 147.4C206.235 151.531 205.47 154.974 204.17 157.498C201.798 162.012 197.208 163.465 195.143 156.886C193.689 152.143 194.148 145.717 194.76 142.198C195.678 136.996 197.973 133.324 201.492 133.707C205.164 134.089 206.924 138.756 206.465 147.4ZM370.022 152.22C369.104 152.22 368.721 153.138 368.415 154.668C367.268 160.023 366.044 161.247 364.437 161.247C362.678 161.247 361.071 158.569 360.689 153.214C360.383 149.007 360.383 141.28 360.842 133.63C360.918 132.024 360.459 130.494 356.252 128.964C354.416 128.275 351.815 127.357 350.438 130.494C346.689 139.521 345.236 146.635 344.93 149.542C344.93 149.695 344.7 149.695 344.7 149.389C344.471 147.094 344.012 142.81 343.935 133.936C343.935 132.177 343.553 130.723 341.64 129.499C340.416 128.734 336.668 127.357 335.291 128.964C334.143 130.341 332.766 133.936 331.313 138.22C330.165 141.739 329.4 144.111 329.4 144.111C329.4 144.111 329.4 134.701 329.4 131.106C329.4 129.729 328.482 129.27 328.176 129.193C326.952 128.811 324.428 128.199 323.433 128.199C322.133 128.199 321.827 128.887 321.827 129.958C321.827 130.111 321.597 142.351 321.597 150.919C321.597 151.302 321.597 151.684 321.597 152.143C320.909 156.121 318.537 161.476 316.013 161.476C313.488 161.476 312.264 159.258 312.264 149.007C312.264 143.04 312.417 140.439 312.494 136.155C312.57 133.707 312.647 131.794 312.647 131.335C312.647 130.035 310.352 129.346 309.281 129.117C308.21 128.887 307.292 128.734 306.527 128.811C305.532 128.887 304.767 129.576 304.767 130.494C304.767 131.029 304.767 131.947 304.767 131.947C303.467 129.882 301.325 128.428 299.871 127.969C296.046 126.822 292.068 127.816 289.008 132.024C286.637 135.39 285.183 139.138 284.571 144.646C284.189 148.624 284.265 152.679 285.03 156.121C284.112 159.946 282.506 161.553 280.67 161.553C278.069 161.553 276.156 157.269 276.386 149.848C276.539 144.952 277.533 141.51 278.604 136.537C279.063 134.395 278.681 133.324 277.763 132.253C276.921 131.259 275.085 130.8 272.484 131.412C270.648 131.871 267.971 132.33 265.523 132.712C265.523 132.712 265.676 132.1 265.752 131.106C266.364 125.674 260.474 126.133 258.638 127.893C257.49 128.887 256.725 130.111 256.496 132.33C256.037 135.772 258.867 137.455 258.867 137.455C257.949 141.739 255.654 147.247 253.283 151.302C252.059 153.444 251.064 155.05 249.84 156.733C249.84 156.121 249.84 155.433 249.84 154.821C249.84 145.87 249.917 138.832 249.993 136.308C250.07 133.86 250.146 131.947 250.146 131.565C250.146 130.57 249.534 130.264 248.387 129.729C247.316 129.346 246.092 129.04 244.791 128.964C243.185 128.811 242.19 129.729 242.19 130.723C242.19 130.953 242.19 132.1 242.19 132.1C240.89 130.035 238.748 128.581 237.294 128.122C233.469 126.975 229.491 127.969 226.431 132.177C224.06 135.543 222.453 140.209 221.994 144.723C221.612 148.93 221.688 152.526 222.224 155.509C221.612 158.493 219.852 161.629 217.863 161.629C215.339 161.629 213.885 159.411 213.885 149.16C213.885 143.193 214.038 140.592 214.115 136.308C214.191 133.86 214.268 131.947 214.268 131.488C214.268 130.188 211.973 129.499 210.902 129.27C209.754 129.04 208.836 128.887 208.071 128.964C207.077 129.04 206.388 129.882 206.388 130.57V132.1C205.088 130.035 202.946 128.581 201.492 128.122C197.667 126.975 193.689 128.046 190.629 132.177C188.64 134.931 187.034 137.991 186.192 144.646C185.963 146.559 185.886 148.395 185.886 150.078C185.121 154.897 181.602 160.482 178.772 160.482C177.089 160.482 175.482 157.269 175.482 150.307C175.482 141.127 176.018 128.046 176.171 126.745C176.171 126.745 179.766 126.669 180.455 126.669C182.214 126.669 183.897 126.669 186.269 126.592C187.493 126.516 188.64 122.232 187.416 121.696C186.881 121.467 182.903 121.237 181.296 121.237C179.996 121.237 176.324 120.931 176.324 120.931C176.324 120.931 176.63 112.21 176.706 111.292C176.783 110.527 175.788 110.145 175.253 109.915C173.876 109.303 172.652 109.074 171.198 108.768C169.209 108.385 168.291 108.768 168.062 110.451C167.756 113.052 167.679 120.625 167.679 120.625C166.226 120.625 161.1 120.319 159.647 120.319C158.27 120.319 156.816 126.286 158.652 126.286C160.871 126.363 164.696 126.439 167.22 126.516C167.22 126.516 167.144 139.827 167.144 143.958C167.144 144.417 167.144 144.799 167.144 145.258C165.767 152.526 160.871 156.427 160.871 156.427C161.942 151.608 159.8 148.012 155.898 144.952C154.445 143.805 151.614 141.663 148.478 139.368C148.478 139.368 150.314 137.532 151.92 133.936C153.068 131.335 153.144 128.428 150.314 127.816C145.647 126.745 141.822 130.188 140.675 133.86C139.757 136.69 140.292 138.756 141.975 140.974C142.128 141.127 142.205 141.28 142.358 141.433C141.287 143.499 139.833 146.176 138.609 148.318C135.243 154.209 132.642 158.875 130.73 158.875C129.2 158.875 129.2 154.132 129.2 149.772C129.2 145.947 129.506 140.209 129.735 134.319C129.812 132.33 128.817 131.259 127.211 130.264C126.216 129.652 124.074 128.428 122.85 128.428C121.014 128.428 115.659 128.658 110.61 143.269C109.998 145.105 108.698 148.471 108.698 148.471L108.774 130.953C108.774 130.57 108.545 130.111 108.086 129.882C107.244 129.423 104.949 128.505 102.96 128.505C101.966 128.505 101.507 128.964 101.507 129.805L101.354 157.192C101.354 159.258 101.43 161.706 101.583 162.777C101.813 163.848 102.119 164.689 102.501 165.225C102.884 165.76 103.419 166.143 104.184 166.296C104.949 166.449 108.927 166.984 109.157 165.454C109.386 163.618 109.386 161.629 111.528 154.285C114.818 142.81 119.025 137.149 121.091 135.16C121.473 134.778 121.856 134.778 121.856 135.39C121.779 137.914 121.473 144.187 121.244 149.542C120.708 163.848 123.309 166.525 127.058 166.525C129.888 166.525 133.943 163.695 138.227 156.504C140.904 152.067 143.505 147.63 145.418 144.493C146.718 145.717 148.172 147.018 149.625 148.395C152.991 151.608 154.139 154.668 153.374 157.575C152.838 159.793 150.696 162.088 146.871 159.87C145.8 159.258 145.265 158.722 144.194 157.957C143.582 157.575 142.664 157.422 142.128 157.881C140.675 158.952 139.91 160.329 139.451 162.012C138.992 163.618 140.675 164.536 142.358 165.301C143.811 165.99 146.948 166.525 149.013 166.602C156.816 166.831 163.166 162.853 167.526 152.373C168.291 161.4 171.657 166.525 177.395 166.525C181.296 166.525 185.121 161.553 186.804 156.58C187.263 158.569 188.028 160.329 188.946 161.782C193.383 168.82 202.028 167.29 206.388 161.323C207.765 159.487 207.918 158.799 207.918 158.799C208.53 164.46 213.12 166.449 215.721 166.449C218.628 166.449 221.688 165.072 223.754 160.329C223.983 160.864 224.289 161.323 224.595 161.782C229.032 168.82 237.677 167.29 242.037 161.323C242.267 161.017 242.42 160.788 242.573 160.558L242.726 164.307C242.726 164.307 240.278 166.602 238.748 167.979C232.016 174.099 226.967 178.765 226.584 184.197C226.125 191.082 231.71 193.683 235.994 193.989C240.507 194.371 244.332 191.847 246.704 188.404C248.769 185.344 250.146 178.765 250.07 172.186C249.993 169.585 249.993 166.219 249.917 162.7C252.288 159.946 254.889 156.504 257.337 152.449C260.015 148.012 262.845 142.122 264.299 137.532C264.299 137.532 266.747 137.532 269.424 137.379C270.266 137.302 270.495 137.532 270.342 138.144C270.189 138.909 266.976 151.072 269.883 159.181C271.872 164.689 276.309 166.525 278.91 166.525C281.97 166.525 284.954 164.23 286.484 160.711C286.637 161.094 286.866 161.476 287.096 161.782C291.533 168.82 300.177 167.29 304.538 161.323C305.532 159.946 306.068 158.799 306.068 158.799C306.986 164.689 311.576 166.449 314.177 166.449C316.931 166.449 319.455 165.301 321.597 160.405C321.674 162.624 321.827 164.383 322.056 164.919C322.209 165.225 322.974 165.684 323.51 165.913C326.034 166.831 328.559 166.372 329.477 166.219C330.165 166.066 330.624 165.531 330.701 164.23C330.854 160.711 330.777 154.744 331.848 150.307C333.684 142.887 335.291 139.98 336.132 138.603C336.591 137.838 337.05 137.685 337.127 138.526C337.127 140.209 337.28 145.258 337.968 151.99C338.504 156.963 339.192 159.87 339.728 160.788C341.258 163.465 343.094 163.542 344.624 163.542C345.618 163.542 347.607 163.312 347.378 161.553C347.301 160.711 347.454 155.662 349.214 148.318C350.361 143.575 352.274 139.215 353.039 137.685C353.268 137.073 353.421 137.532 353.421 137.685C353.268 140.974 352.962 151.684 354.263 157.575C356.099 165.531 361.301 166.449 363.137 166.449C367.038 166.449 370.251 163.465 371.322 155.662C371.552 153.673 371.169 152.22 370.022 152.22Z" fill="white"/>
</svg>
