<svg width="440" height="281" viewBox="0 0 440 281" fill="none" xmlns="http://www.w3.org/2000/svg">
<path d="M432 280.025H8C3.6 280.025 0 276.425 0 272.025V8.02466C0 3.62466 3.6 0.0246582 8 0.0246582H432C436.4 0.0246582 440 3.62466 440 8.02466V272.025C440 276.425 436.4 280.025 432 280.025Z" fill="#E6E6E6"/>
<path d="M188.18 129.426H197.656V159.189H188.18V129.426Z" fill="black"/>
<path d="M199.634 129.426H208.761V133.495H208.935C211.144 130.298 213.993 128.554 218.12 128.554C224.631 128.554 228.467 133.205 228.467 139.832V159.189H218.992V141.75C218.992 138.611 217.423 136.46 214.342 136.46C211.203 136.46 209.11 139.076 209.11 142.738V159.189H199.634V129.426Z" fill="black"/>
<path d="M198.602 121.463C198.602 118.324 196.057 115.779 192.918 115.779C189.779 115.779 187.234 118.324 187.234 121.463C187.234 124.602 189.779 127.147 192.918 127.147C196.057 127.147 198.602 124.602 198.602 121.463Z" fill="black"/>
<path d="M295.11 128.996C294.84 128.972 294.53 128.961 294.167 128.961C290.563 128.961 288.121 130.53 286.028 134.076H285.854V129.426H276.786V159.189H286.261V145.819C286.261 139.624 289.692 136.753 295.11 137.254V128.996Z" fill="black"/>
<path d="M341.61 140.413C337.831 139.715 334.459 139.425 334.459 137.332C334.459 135.472 336.262 134.6 338.587 134.6C341.202 134.6 343.005 135.414 343.354 138.088H352.073C351.608 132.216 347.074 128.554 338.645 128.554C331.611 128.554 325.798 131.809 325.798 138.088C325.798 145.063 331.32 146.458 336.494 147.331C340.447 148.028 344.051 148.319 344.051 150.993C344.051 152.911 342.249 153.958 339.401 153.958C336.543 153.958 334.653 152.748 334.073 150.295H325.044C325.709 156.414 331.08 160.119 339.459 160.119C347.249 160.119 353.003 156.748 353.003 150.237C353.003 142.622 346.841 141.285 341.61 140.413Z" fill="black"/>
<path d="M309.809 135.297C312.89 135.297 315.099 137.564 315.448 141.111H303.705C304.344 137.564 306.205 135.297 309.809 135.297ZM310.332 153.26C306.437 153.26 304.228 150.76 303.647 146.749H325.039C325.097 140.704 323.354 135.53 319.807 132.275C317.25 129.949 313.878 128.554 309.634 128.554C300.566 128.554 294.346 135.355 294.346 144.25C294.346 153.26 300.391 160.061 310.216 160.061C313.994 160.061 317.017 159.073 319.517 157.329C322.133 155.527 323.877 152.969 324.516 150.295H315.273C314.459 152.156 312.832 153.26 310.332 153.26Z" fill="black"/>
<path d="M369.692 152.171C369.253 152.188 368.663 152.214 368.121 152.214C366.087 152.214 364.808 151.632 364.808 149.307V135.355H369.692V129.426H364.808V120.009H355.565V129.426H352.657V135.355H355.565V151.341C355.565 157.736 359.518 159.538 365.041 159.538C367.148 159.538 368.74 159.38 369.692 159.195V152.171Z" fill="black"/>
<path d="M245.389 152.184C245.011 152.199 244.575 152.214 244.167 152.214C242.133 152.214 240.854 151.632 240.854 149.307V135.355H245.389V129.426H240.854V120.009H231.611V129.426H228.529V135.355H231.611V151.341C231.611 157.736 235.564 159.538 241.086 159.538C242.955 159.538 244.418 159.414 245.389 159.256V152.184Z" fill="black"/>
<path d="M266.029 141.111C265.68 137.564 263.47 135.297 260.39 135.297C256.785 135.297 254.925 137.564 254.286 141.111H266.029ZM244.927 144.25C244.927 135.355 251.147 128.554 260.215 128.554C264.459 128.554 267.831 129.949 270.388 132.274C273.934 135.53 275.678 140.704 275.62 146.749H254.228C254.809 150.76 257.018 153.26 260.913 153.26C263.412 153.26 265.04 152.155 265.854 150.295H275.097C274.457 152.969 272.714 155.527 270.097 157.329C267.598 159.073 264.575 160.061 260.797 160.061C250.972 160.061 244.927 153.26 244.927 144.25" fill="black"/>
<path d="M171.725 137.158C175.445 137.158 177.538 134.949 177.538 131.635C177.538 128.322 175.387 126.287 171.725 126.287H164.458V137.158H171.725ZM154.865 117.625H171.319C176.376 117.625 180.097 119.02 182.655 121.462C185.329 123.961 186.84 127.508 186.84 131.693C186.84 139.657 181.318 145.296 172.772 145.296H164.458V159.189H154.865V117.625V117.625Z" fill="black"/>
<path d="M141.857 139.657C141.857 159.415 125.84 175.432 106.082 175.432C86.3246 175.432 70.3076 159.415 70.3076 139.657C70.3076 119.899 86.3246 103.882 106.082 103.882C125.84 103.882 141.857 119.899 141.857 139.657Z" fill="white"/>
<path d="M106.082 103.882C86.3246 103.882 70.3076 119.899 70.3076 139.657C70.3076 154.813 79.7372 167.769 93.0452 172.982C92.7325 170.151 92.4498 165.798 93.1692 162.708C93.8193 159.916 97.3642 144.926 97.3642 144.926C97.3642 144.926 96.2941 142.782 96.2941 139.614C96.2941 134.64 99.1774 130.926 102.767 130.926C105.82 130.926 107.294 133.217 107.294 135.965C107.294 139.035 105.34 143.624 104.331 147.877C103.488 151.437 106.117 154.341 109.629 154.341C115.987 154.341 120.875 147.637 120.875 137.959C120.875 129.393 114.72 123.404 105.931 123.404C95.7522 123.404 89.7774 131.039 89.7774 138.93C89.7774 142.004 90.9619 145.301 92.4399 147.094C92.7322 147.448 92.7751 147.758 92.688 148.12C92.4164 149.25 91.8129 151.68 91.6944 152.177C91.5384 152.832 91.1759 152.971 90.4979 152.655C86.0299 150.576 83.2364 144.043 83.2364 138.796C83.2364 127.511 91.4358 117.147 106.874 117.147C119.284 117.147 128.929 125.991 128.929 137.809C128.929 150.138 121.155 160.061 110.365 160.061C106.74 160.061 103.332 158.178 102.165 155.953C102.165 155.953 100.371 162.784 99.9364 164.457C99.1287 167.565 96.9484 171.46 95.49 173.836C98.8372 174.872 102.394 175.431 106.082 175.431C125.84 175.431 141.857 159.414 141.857 139.657C141.857 119.899 125.84 103.882 106.082 103.882Z" fill="black"/>
</svg>
