<svg width="440" height="281" viewBox="0 0 440 281" fill="none" xmlns="http://www.w3.org/2000/svg">
<path d="M432 280.5H8C3.6 280.5 0 276.9 0 272.5V8.5C0 4.1 3.6 0.5 8 0.5H432C436.4 0.5 440 4.1 440 8.5V272.5C440 276.9 436.4 280.5 432 280.5Z" fill="black"/>
<path d="M188.18 129.901H197.656V159.665H188.18V129.901Z" fill="white"/>
<path d="M199.634 129.901H208.761V133.971H208.935C211.144 130.773 213.993 129.03 218.12 129.03C224.631 129.03 228.467 133.68 228.467 140.307V159.665H218.992V142.225C218.992 139.086 217.423 136.935 214.342 136.935C211.203 136.935 209.11 139.551 209.11 143.213V159.665H199.634V129.901Z" fill="white"/>
<path d="M198.602 121.938C198.602 118.799 196.057 116.255 192.918 116.255C189.779 116.255 187.234 118.799 187.234 121.938C187.234 125.077 189.779 127.622 192.918 127.622C196.057 127.622 198.602 125.077 198.602 121.938Z" fill="white"/>
<path d="M295.11 129.471C294.84 129.447 294.53 129.436 294.167 129.436C290.563 129.436 288.121 131.006 286.028 134.552H285.854V129.901H276.786V159.664H286.261V146.294C286.261 140.099 289.692 137.229 295.11 137.73V129.471Z" fill="white"/>
<path d="M341.61 140.888C337.831 140.191 334.459 139.9 334.459 137.807C334.459 135.947 336.262 135.075 338.587 135.075C341.202 135.075 343.005 135.889 343.354 138.563H352.073C351.608 132.692 347.074 129.029 338.645 129.029C331.611 129.029 325.798 132.285 325.798 138.563C325.798 145.538 331.32 146.934 336.494 147.806C340.447 148.504 344.051 148.794 344.051 151.468C344.051 153.387 342.249 154.433 339.401 154.433C336.543 154.433 334.653 153.224 334.073 150.771H325.044C325.709 156.889 331.08 160.595 339.459 160.595C347.249 160.595 353.003 157.223 353.003 150.713C353.003 143.097 346.841 141.76 341.61 140.888Z" fill="white"/>
<path d="M309.809 135.773C312.89 135.773 315.099 138.04 315.448 141.586H303.705C304.344 138.04 306.205 135.773 309.809 135.773ZM310.332 153.735C306.437 153.735 304.228 151.236 303.647 147.224H325.039C325.097 141.179 323.354 136.005 319.807 132.75C317.25 130.425 313.878 129.029 309.634 129.029C300.566 129.029 294.346 135.831 294.346 144.725C294.346 153.735 300.391 160.537 310.216 160.537C313.994 160.537 317.017 159.548 319.517 157.804C322.133 156.002 323.877 153.445 324.516 150.771H315.273C314.459 152.631 312.832 153.735 310.332 153.735Z" fill="white"/>
<path d="M369.692 152.646C369.253 152.663 368.663 152.689 368.121 152.689C366.087 152.689 364.808 152.107 364.808 149.782V135.831H369.692V129.901H364.808V120.484H355.565V129.901H352.657V135.831H355.565V151.817C355.565 158.212 359.518 160.013 365.041 160.013C367.148 160.013 368.74 159.856 369.692 159.67V152.646Z" fill="white"/>
<path d="M245.389 152.66C245.011 152.674 244.575 152.689 244.167 152.689C242.133 152.689 240.854 152.107 240.854 149.782V135.831H245.389V129.901H240.854V120.484H231.611V129.901H228.529V135.831H231.611V151.817C231.611 158.212 235.564 160.013 241.086 160.013C242.955 160.013 244.418 159.889 245.389 159.731V152.66Z" fill="white"/>
<path d="M266.029 141.586C265.68 138.04 263.47 135.772 260.39 135.772C256.785 135.772 254.925 138.04 254.286 141.586H266.029ZM244.927 144.725C244.927 135.831 251.147 129.03 260.215 129.03C264.459 129.03 267.831 130.425 270.388 132.75C273.934 136.005 275.678 141.179 275.62 147.225H254.228C254.809 151.235 257.018 153.735 260.913 153.735C263.412 153.735 265.04 152.631 265.854 150.771H275.097C274.457 153.445 272.714 156.002 270.097 157.805C267.598 159.548 264.575 160.537 260.797 160.537C250.972 160.537 244.927 153.735 244.927 144.725Z" fill="white"/>
<path d="M171.725 137.633C175.445 137.633 177.538 135.424 177.538 132.11C177.538 128.797 175.387 126.762 171.725 126.762H164.458V137.633H171.725ZM154.865 118.101H171.319C176.376 118.101 180.097 119.496 182.655 121.937C185.329 124.437 186.84 127.983 186.84 132.168C186.84 140.132 181.318 145.771 172.772 145.771H164.458V159.665H154.865V118.101Z" fill="white"/>
<path d="M141.857 140.132C141.857 159.89 125.84 175.907 106.082 175.907C86.3246 175.907 70.3076 159.89 70.3076 140.132C70.3076 120.374 86.3246 104.357 106.082 104.357C125.84 104.357 141.857 120.374 141.857 140.132Z" fill="black"/>
<path d="M106.082 104.357C86.3246 104.357 70.3076 120.374 70.3076 140.132C70.3076 155.288 79.7372 168.244 93.0452 173.457C92.7325 170.626 92.4498 166.273 93.1692 163.183C93.8193 160.391 97.3642 145.401 97.3642 145.401C97.3642 145.401 96.2941 143.258 96.2941 140.089C96.2941 135.115 99.1774 131.401 102.767 131.401C105.82 131.401 107.294 133.693 107.294 136.44C107.294 139.51 105.34 144.099 104.331 148.352C103.488 151.913 106.117 154.816 109.629 154.816C115.987 154.816 120.875 148.112 120.875 138.434C120.875 129.869 114.72 123.88 105.931 123.88C95.7522 123.88 89.7774 131.515 89.7774 139.405C89.7774 142.48 90.9619 145.777 92.4399 147.569C92.7323 147.923 92.7751 148.234 92.688 148.595C92.4164 149.725 91.8129 152.155 91.6944 152.652C91.5384 153.307 91.1759 153.446 90.4979 153.131C86.0299 151.051 83.2364 144.518 83.2364 139.272C83.2364 127.987 91.4358 117.623 106.874 117.623C119.284 117.623 128.929 126.466 128.929 138.284C128.929 150.614 121.155 160.536 110.365 160.536C106.74 160.536 103.332 158.653 102.165 156.428C102.165 156.428 100.371 163.259 99.9364 164.933C99.1287 168.04 96.9484 171.935 95.49 174.311C98.8372 175.348 102.394 175.907 106.082 175.907C125.84 175.907 141.857 159.89 141.857 140.132C141.857 120.374 125.84 104.357 106.082 104.357Z" fill="white"/>
</svg>
