<svg width="441" height="281" viewBox="0 0 441 281" fill="none" xmlns="http://www.w3.org/2000/svg">
<path d="M432.9 280.5H8.8999C4.4999 280.5 0.899902 276.9 0.899902 272.5V8.5C0.899902 4.1 4.4999 0.5 8.8999 0.5H432.9C437.3 0.5 440.9 4.1 440.9 8.5V272.5C440.9 276.9 437.4 280.5 432.9 280.5Z" fill="black"/>
<mask id="mask0_14713_149" style="mask-type:alpha" maskUnits="userSpaceOnUse" x="76" y="40" width="290" height="202">
<path d="M76.064 40.0065H365.002V241.838H76.064V40.0065Z" fill="#FFFFFE"/>
</mask>
<g mask="url(#mask0_14713_149)">
<path fill-rule="evenodd" clip-rule="evenodd" d="M196.037 62.1018C205.363 52.3926 218.344 46.3802 232.685 46.3802C251.806 46.3802 268.377 57.0029 277.3 72.8307C285.221 69.2899 293.8 67.4618 302.476 67.4662C336.894 67.4662 364.832 95.6164 364.832 130.353C364.832 165.089 336.894 193.239 302.476 193.239C298.27 193.239 294.169 192.816 290.154 192.018C282.346 205.933 267.421 215.387 250.425 215.387C243.505 215.401 236.674 213.831 230.454 210.798C222.54 229.388 204.11 242.454 182.652 242.454C160.238 242.454 141.224 228.326 133.894 208.461C130.632 209.15 127.306 209.496 123.972 209.494C97.3092 209.494 75.7451 187.611 75.7451 160.736C75.7451 142.677 85.4543 126.956 99.8587 118.457C96.8028 111.418 95.2298 103.824 95.2378 96.1497C95.2378 65.1314 120.414 40.0618 151.432 40.0618C169.597 40.0618 185.85 48.7193 196.047 62.157" fill="#FFFFFE"/>
<path fill-rule="evenodd" clip-rule="evenodd" d="M117.854 144.959C117.672 145.433 117.919 145.531 117.977 145.615C118.52 146.008 119.071 146.293 119.624 146.613C122.577 148.174 125.36 148.631 128.27 148.631C134.198 148.631 137.884 145.476 137.884 140.399V140.299C137.884 135.603 133.72 133.893 129.832 132.672L129.323 132.507C126.381 131.553 123.842 130.722 123.842 128.789V128.69C123.842 127.033 125.329 125.811 127.623 125.811C130.173 125.811 133.211 126.66 135.155 127.734C135.155 127.734 135.731 128.106 135.94 127.55C136.054 127.25 137.045 124.597 137.151 124.3C137.264 123.989 137.066 123.754 136.863 123.633C134.632 122.273 131.552 121.349 128.365 121.349L127.773 121.351C122.345 121.351 118.553 124.633 118.553 129.329V129.43C118.553 134.38 122.738 135.994 126.647 137.11L127.276 137.305C130.123 138.181 132.587 138.941 132.587 140.938V141.038C132.587 142.876 130.983 144.246 128.413 144.246C127.413 144.246 124.227 144.229 120.775 142.047C120.358 141.804 120.12 141.629 119.798 141.432C119.628 141.329 119.203 141.143 119.018 141.7L117.85 144.95L117.854 144.959ZM204.637 144.95C204.455 145.424 204.702 145.523 204.762 145.607C205.303 146 205.857 146.285 206.409 146.604C209.362 148.166 212.145 148.623 215.056 148.623C220.983 148.623 224.669 145.468 224.669 140.39V140.29C224.669 135.595 220.516 133.885 216.617 132.663L216.109 132.498C213.166 131.545 210.627 130.714 210.627 128.78V128.682C210.627 127.025 212.114 125.803 214.409 125.803C216.958 125.803 219.986 126.652 221.94 127.726C221.94 127.726 222.516 128.097 222.726 127.542C222.839 127.241 223.831 124.589 223.927 124.291C224.041 123.98 223.842 123.745 223.64 123.624C221.409 122.265 218.329 121.34 215.142 121.34L214.549 121.342C209.121 121.342 205.329 124.625 205.329 129.32V129.421C205.329 134.371 209.514 135.986 213.423 137.101L214.051 137.297C216.908 138.172 219.362 138.933 219.362 140.93V141.03C219.362 142.867 217.758 144.238 215.188 144.238C214.186 144.238 210.992 144.221 207.55 142.039C207.132 141.795 206.888 141.628 206.571 141.424C206.464 141.356 205.964 141.16 205.793 141.691L204.624 144.942L204.637 144.95ZM263.899 134.999C263.899 137.867 263.364 140.13 262.316 141.734C261.271 143.317 259.692 144.092 257.494 144.092C255.295 144.092 253.723 143.323 252.692 141.744C251.654 140.151 251.131 137.878 251.131 135.01C251.131 132.142 251.657 129.889 252.692 128.307C253.72 126.735 255.284 125.98 257.494 125.98C259.703 125.98 261.275 126.742 262.316 128.307C263.37 129.889 263.899 132.142 263.899 135.01V134.999ZM268.849 129.688C268.362 128.041 267.606 126.596 266.597 125.385C265.587 124.174 264.313 123.197 262.794 122.496C261.286 121.79 259.501 121.434 257.483 121.434C255.465 121.434 253.691 121.792 252.172 122.496C250.663 123.201 249.378 124.174 248.369 125.385C247.362 126.596 246.605 128.041 246.117 129.688C245.633 131.324 245.388 133.108 245.388 135.01C245.388 136.911 245.633 138.696 246.117 140.332C246.602 141.978 247.36 143.423 248.369 144.634C249.379 145.845 250.663 146.811 252.172 147.502C253.691 148.19 255.475 148.541 257.483 148.541C259.491 148.541 261.275 148.19 262.784 147.502C264.292 146.814 265.577 145.845 266.587 144.634C267.595 143.423 268.35 141.978 268.839 140.332C269.321 138.696 269.566 136.911 269.566 135.01C269.566 133.119 269.321 131.324 268.839 129.688H268.849ZM309.524 143.285C309.361 142.804 308.892 142.985 308.892 142.985C308.172 143.26 307.404 143.515 306.586 143.643C305.762 143.772 304.844 143.837 303.878 143.837C301.488 143.837 299.575 143.124 298.216 141.713C296.845 140.3 296.081 138.026 296.091 134.946C296.099 132.142 296.776 130.038 297.993 128.424C299.193 126.83 301.041 126.002 303.485 126.002C305.524 126.002 307.086 126.238 308.722 126.75C308.722 126.75 309.109 126.919 309.295 126.408C309.73 125.208 310.05 124.348 310.517 123.03C310.649 122.653 310.326 122.494 310.208 122.448C309.566 122.198 308.051 121.786 306.904 121.613C305.831 121.45 304.588 121.365 303.186 121.365C301.104 121.365 299.256 121.721 297.673 122.426C296.09 123.13 294.752 124.104 293.689 125.315C292.627 126.526 291.82 127.971 291.278 129.618C290.742 131.253 290.471 133.049 290.471 134.95C290.471 139.051 291.575 142.375 293.764 144.808C295.952 147.251 299.245 148.483 303.537 148.483C306.075 148.483 308.678 147.97 310.548 147.23C310.548 147.23 310.905 147.058 310.749 146.642L309.528 143.285H309.524ZM318.185 132.237C318.422 130.644 318.859 129.316 319.545 128.285C320.572 126.713 322.137 125.853 324.336 125.853C326.535 125.853 327.99 126.718 329.031 128.285C329.722 129.321 330.023 130.697 330.136 132.237L318.132 132.235L318.185 132.237ZM334.863 128.732C334.441 127.149 333.397 125.545 332.717 124.812C331.634 123.654 330.582 122.836 329.53 122.39C328.012 121.744 326.379 121.413 324.729 121.416C322.636 121.416 320.735 121.769 319.195 122.489C317.654 123.213 316.358 124.199 315.338 125.431C314.32 126.663 313.554 128.119 313.065 129.786C312.577 131.433 312.33 133.239 312.33 135.13C312.33 137.063 312.586 138.858 313.09 140.484C313.598 142.119 314.417 143.553 315.522 144.743C316.627 145.944 318.04 146.878 319.739 147.537C321.428 148.19 323.479 148.529 325.826 148.522C330.67 148.506 333.22 147.428 334.261 146.843C334.447 146.739 334.622 146.56 334.403 146.042L333.309 142.972C333.141 142.515 332.678 142.68 332.678 142.68C331.478 143.129 329.778 143.934 325.794 143.923C323.192 143.919 321.269 143.151 320.058 141.947C318.826 140.715 318.21 138.92 318.114 136.37L334.898 136.383C334.898 136.383 335.34 136.379 335.386 135.948C335.404 135.769 335.96 132.506 334.885 128.735L334.863 128.732ZM184.021 132.237C184.257 130.644 184.695 129.316 185.38 128.285C186.409 126.713 187.972 125.853 190.171 125.853C192.37 125.853 193.825 126.718 194.866 128.285C195.556 129.321 195.857 130.697 195.971 132.237L183.967 132.235L184.021 132.237ZM200.698 128.732C200.278 127.149 199.232 125.545 198.552 124.812C197.469 123.654 196.417 122.836 195.366 122.39C193.847 121.744 192.214 121.413 190.564 121.416C188.471 121.416 186.57 121.769 185.03 122.489C183.489 123.213 182.193 124.199 181.174 125.431C180.157 126.663 179.389 128.119 178.9 129.786C178.413 131.433 178.167 133.239 178.167 135.13C178.167 137.063 178.421 138.858 178.928 140.484C179.436 142.119 180.256 143.553 181.35 144.743C182.455 145.944 183.868 146.878 185.567 147.537C187.256 148.19 189.296 148.529 191.654 148.522C196.498 148.506 199.047 147.428 200.088 146.843C200.273 146.739 200.45 146.56 200.23 146.042L199.136 142.972C198.967 142.515 198.504 142.68 198.504 142.68C197.303 143.129 195.604 143.934 191.62 143.923C189.028 143.919 187.095 143.151 185.884 141.947C184.652 140.715 184.035 138.92 183.94 136.37L200.724 136.383C200.724 136.383 201.166 136.379 201.211 135.948C201.229 135.769 201.786 132.506 200.71 128.735L200.698 128.732ZM147.797 143.179C147.14 142.654 147.048 142.525 146.83 142.184C146.498 141.671 146.328 140.941 146.328 140.007C146.328 138.541 146.817 137.478 147.826 136.767C147.815 136.769 149.27 135.513 152.691 135.556C154.213 135.583 155.732 135.712 157.237 135.943V143.56H157.24C157.24 143.56 155.115 144.018 152.714 144.162C149.304 144.367 147.796 143.181 147.807 143.184L147.797 143.179ZM154.468 131.387C153.788 131.337 152.907 131.313 151.855 131.313C150.421 131.313 149.029 131.491 147.733 131.842C146.427 132.195 145.248 132.741 144.238 133.467C143.227 134.189 142.394 135.134 141.806 136.229C141.212 137.334 140.909 138.63 140.909 140.096C140.909 141.583 141.167 142.868 141.677 143.92C142.177 144.963 142.929 145.865 143.866 146.544C144.797 147.222 145.948 147.723 147.276 148.02C148.593 148.321 150.08 148.473 151.716 148.473C153.437 148.473 155.147 148.328 156.804 148.049C158.215 147.806 159.622 147.532 161.021 147.229C161.58 147.1 162.2 146.932 162.2 146.932C162.615 146.826 162.583 146.383 162.583 146.383L162.573 131.087C162.573 127.73 161.677 125.234 159.907 123.693C158.144 122.153 155.562 121.378 152.216 121.378C150.963 121.378 148.934 121.547 147.723 121.791C147.723 121.791 144.069 122.5 142.56 123.682C142.56 123.682 142.229 123.886 142.409 124.348L143.599 127.534C143.747 127.948 144.149 127.806 144.149 127.806C144.149 127.806 144.276 127.756 144.424 127.668C147.643 125.916 151.722 125.969 151.722 125.969C153.528 125.969 154.93 126.335 155.865 127.052C156.78 127.754 157.246 128.816 157.246 131.046V131.755C155.812 131.547 154.484 131.427 154.484 131.427L154.468 131.387ZM289.377 122.751C289.401 122.695 289.413 122.635 289.414 122.574C289.414 122.513 289.402 122.452 289.379 122.396C289.355 122.34 289.321 122.289 289.277 122.246C289.233 122.203 289.182 122.17 289.125 122.148C288.839 122.039 287.415 121.739 286.32 121.671C284.217 121.539 283.049 121.894 281.997 122.365C280.958 122.834 279.809 123.587 279.171 124.458L279.169 122.419C279.169 122.138 278.971 121.912 278.688 121.912H274.396C274.118 121.912 273.916 122.138 273.916 122.419V147.382C273.917 147.517 273.97 147.646 274.066 147.741C274.161 147.837 274.29 147.89 274.425 147.891H278.823C278.958 147.89 279.087 147.837 279.182 147.741C279.277 147.646 279.331 147.517 279.331 147.382V134.847C279.331 133.169 279.516 131.501 279.884 130.449C280.247 129.409 280.741 128.58 281.35 127.985C281.931 127.41 282.641 126.984 283.421 126.742C284.154 126.532 284.912 126.425 285.674 126.425C286.55 126.425 287.511 126.651 287.511 126.651C287.834 126.687 288.014 126.489 288.123 126.198C288.411 125.432 289.228 123.139 289.387 122.682" fill="black"/>
<path fill-rule="evenodd" clip-rule="evenodd" d="M248.302 111.23C247.758 111.065 247.205 110.934 246.645 110.837C245.893 110.711 245.131 110.652 244.368 110.66C241.337 110.66 238.948 111.516 237.271 113.208C235.605 114.886 234.472 117.443 233.903 120.807L233.698 121.943H229.894C229.894 121.943 229.43 121.923 229.333 122.43L228.708 125.914C228.664 126.248 228.808 126.456 229.254 126.454H232.957L229.2 147.426C228.905 149.115 228.569 150.505 228.196 151.558C227.828 152.597 227.469 153.375 227.027 153.94C226.599 154.487 226.194 154.89 225.493 155.125C224.916 155.319 224.251 155.408 223.522 155.408C223.116 155.408 222.576 155.34 222.178 155.261C221.78 155.182 221.573 155.093 221.274 154.968C221.274 154.968 220.84 154.802 220.669 155.237C220.529 155.593 219.543 158.307 219.426 158.643C219.307 158.974 219.474 159.236 219.684 159.311C220.177 159.487 220.543 159.6 221.215 159.758C222.147 159.978 222.933 159.992 223.67 159.992C225.212 159.992 226.617 159.775 227.783 159.355C228.955 158.931 229.976 158.193 230.879 157.193C231.855 156.115 232.469 154.986 233.057 153.445C233.638 151.919 234.133 150.024 234.529 147.815L238.304 126.454H243.824C243.824 126.454 244.289 126.471 244.386 125.966L245.011 122.482C245.054 122.149 244.912 121.94 244.464 121.943H239.106C239.133 121.821 239.376 119.937 239.991 118.163C240.254 117.406 240.748 116.795 241.166 116.375C241.557 115.976 242.038 115.676 242.569 115.502C243.152 115.322 243.759 115.235 244.368 115.243C244.872 115.243 245.368 115.303 245.745 115.382C246.264 115.492 246.466 115.551 246.602 115.591C247.148 115.758 247.221 115.597 247.328 115.332L248.61 111.814C248.741 111.436 248.42 111.276 248.302 111.23ZM173.439 147.471C173.439 147.752 173.239 147.98 172.959 147.98H168.515C168.234 147.98 168.034 147.752 168.034 147.471V111.707C168.034 111.427 168.234 111.201 168.515 111.201H172.959C173.239 111.201 173.439 111.427 173.439 111.707V147.471Z" fill="black"/>
</g>
</svg>
