<svg width="441" height="281" viewBox="0 0 441 281" fill="none" xmlns="http://www.w3.org/2000/svg">
<path d="M432.9 280.025H8.8999C4.4999 280.025 0.899902 276.425 0.899902 272.025V8.02466C0.899902 3.62466 4.4999 0.0246582 8.8999 0.0246582H432.9C437.3 0.0246582 440.9 3.62466 440.9 8.02466V272.025C440.9 276.425 437.4 280.025 432.9 280.025Z" fill="#E6E6E6"/>
<g clip-path="url(#clip0_14709_178)">
<mask id="mask0_14709_178" style="mask-type:alpha" maskUnits="userSpaceOnUse" x="76" y="39" width="290" height="203">
<path d="M76.064 39.5311H365.002V241.363H76.064V39.5311Z" fill="white"/>
</mask>
<g mask="url(#mask0_14709_178)">
<path fill-rule="evenodd" clip-rule="evenodd" d="M196.037 61.6264C205.363 51.9173 218.344 45.9048 232.685 45.9048C251.806 45.9048 268.377 56.5275 277.3 72.3554C285.221 68.8145 293.8 66.9865 302.476 66.9909C336.894 66.9909 364.832 95.1411 364.832 129.877C364.832 164.614 336.894 192.764 302.476 192.764C298.27 192.764 294.169 192.341 290.154 191.542C282.346 205.458 267.421 214.912 250.425 214.912C243.505 214.926 236.674 213.356 230.454 210.323C222.54 228.913 204.11 241.979 182.652 241.979C160.238 241.979 141.224 227.851 133.894 207.986C130.632 208.675 127.306 209.021 123.972 209.019C97.3092 209.019 75.7451 187.136 75.7451 160.26C75.7451 142.202 85.4543 126.48 99.8587 117.982C96.8028 110.942 95.2298 103.349 95.2378 95.6743C95.2378 64.656 120.414 39.5864 151.432 39.5864C169.597 39.5864 185.85 48.2439 196.047 61.6817" fill="black"/>
<path fill-rule="evenodd" clip-rule="evenodd" d="M117.854 144.484C117.672 144.957 117.919 145.056 117.977 145.14C118.52 145.533 119.071 145.818 119.624 146.137C122.577 147.699 125.36 148.156 128.27 148.156C134.198 148.156 137.884 145.001 137.884 139.923V139.823C137.884 135.128 133.72 133.418 129.832 132.196L129.323 132.032C126.381 131.078 123.842 130.247 123.842 128.314V128.215C123.842 126.558 125.329 125.336 127.623 125.336C130.173 125.336 133.211 126.185 135.155 127.259C135.155 127.259 135.731 127.631 135.94 127.075C136.054 126.774 137.045 124.122 137.151 123.824C137.264 123.513 137.066 123.278 136.863 123.157C134.632 121.798 131.552 120.873 128.365 120.873L127.773 120.876C122.345 120.876 118.553 124.158 118.553 128.853V128.954C118.553 133.904 122.738 135.519 126.647 136.634L127.276 136.83C130.123 137.705 132.587 138.466 132.587 140.463V140.563C132.587 142.4 130.983 143.771 128.413 143.771C127.413 143.771 124.227 143.754 120.775 141.572C120.358 141.329 120.12 141.153 119.798 140.957C119.628 140.854 119.203 140.668 119.018 141.224L117.85 144.475L117.854 144.484ZM204.637 144.475C204.455 144.949 204.702 145.048 204.762 145.132C205.303 145.525 205.857 145.809 206.409 146.129C209.362 147.691 212.145 148.147 215.056 148.147C220.983 148.147 224.669 144.992 224.669 139.915V139.815C224.669 135.12 220.516 133.409 216.617 132.188L216.109 132.023C213.166 131.069 210.627 130.238 210.627 128.305V128.206C210.627 126.549 212.114 125.328 214.409 125.328C216.958 125.328 219.986 126.176 221.94 127.25C221.94 127.25 222.516 127.622 222.726 127.067C222.839 126.766 223.831 124.113 223.927 123.816C224.041 123.505 223.842 123.27 223.64 123.149C221.409 121.789 218.329 120.865 215.142 120.865L214.549 120.867C209.121 120.867 205.329 124.15 205.329 128.845V128.946C205.329 133.896 209.514 135.511 213.423 136.626L214.051 136.821C216.908 137.697 219.362 138.457 219.362 140.454V140.554C219.362 142.392 217.758 143.762 215.188 143.762C214.186 143.762 210.992 143.745 207.55 141.563C207.132 141.32 206.888 141.152 206.571 140.948C206.464 140.88 205.964 140.685 205.793 141.216L204.624 144.467L204.637 144.475ZM263.899 134.524C263.899 137.392 263.364 139.654 262.316 141.258C261.271 142.841 259.692 143.617 257.494 143.617C255.295 143.617 253.723 142.848 252.692 141.269C251.654 139.676 251.131 137.402 251.131 134.534C251.131 131.666 251.657 129.414 252.692 127.831C253.72 126.259 255.284 125.505 257.494 125.505C259.703 125.505 261.275 126.267 262.316 127.831C263.37 129.414 263.899 131.666 263.899 134.534V134.524ZM268.849 129.212C268.362 127.566 267.606 126.121 266.597 124.91C265.587 123.699 264.313 122.722 262.794 122.021C261.286 121.314 259.501 120.958 257.483 120.958C255.465 120.958 253.691 121.316 252.172 122.021C250.663 122.726 249.378 123.699 248.369 124.91C247.362 126.121 246.605 127.566 246.117 129.212C245.633 130.848 245.388 132.633 245.388 134.534C245.388 136.436 245.633 138.22 246.117 139.856C246.602 141.503 247.36 142.947 248.369 144.158C249.379 145.369 250.663 146.336 252.172 147.027C253.691 147.715 255.475 148.066 257.483 148.066C259.491 148.066 261.275 147.715 262.784 147.027C264.292 146.338 265.577 145.369 266.587 144.158C267.595 142.947 268.35 141.503 268.839 139.856C269.321 138.22 269.566 136.436 269.566 134.534C269.566 132.643 269.321 130.848 268.839 129.212H268.849ZM309.524 142.809C309.361 142.328 308.892 142.51 308.892 142.51C308.172 142.785 307.404 143.04 306.586 143.167C305.762 143.297 304.844 143.362 303.878 143.362C301.488 143.362 299.575 142.649 298.216 141.237C296.845 139.824 296.081 137.551 296.091 134.471C296.099 131.666 296.776 129.563 297.993 127.948C299.193 126.355 301.041 125.526 303.485 125.526C305.524 125.526 307.086 125.763 308.722 126.275C308.722 126.275 309.109 126.444 309.295 125.933C309.73 124.733 310.05 123.872 310.517 122.555C310.649 122.178 310.326 122.019 310.208 121.973C309.566 121.722 308.051 121.311 306.904 121.138C305.831 120.974 304.588 120.889 303.186 120.889C301.104 120.889 299.256 121.245 297.673 121.951C296.09 122.655 294.752 123.629 293.689 124.84C292.627 126.051 291.82 127.496 291.278 129.142C290.742 130.778 290.471 132.573 290.471 134.475C290.471 138.575 291.575 141.9 293.764 144.333C295.952 146.776 299.245 148.008 303.537 148.008C306.075 148.008 308.678 147.495 310.548 146.755C310.548 146.755 310.905 146.583 310.749 146.166L309.528 142.809H309.524ZM318.185 131.762C318.422 130.168 318.859 128.841 319.545 127.81C320.572 126.238 322.137 125.378 324.336 125.378C326.535 125.378 327.99 126.242 329.031 127.81C329.722 128.846 330.023 130.221 330.136 131.762L318.132 131.76L318.185 131.762ZM334.863 128.256C334.441 126.673 333.397 125.069 332.717 124.336C331.634 123.179 330.582 122.361 329.53 121.915C328.012 121.269 326.379 120.938 324.729 120.94C322.636 120.94 320.735 121.294 319.195 122.013C317.654 122.738 316.358 123.724 315.338 124.956C314.32 126.188 313.554 127.643 313.065 129.311C312.577 130.958 312.33 132.763 312.33 134.654C312.33 136.588 312.586 138.383 313.09 140.008C313.598 141.644 314.417 143.078 315.522 144.268C316.627 145.468 318.04 146.403 319.739 147.062C321.428 147.715 323.479 148.054 325.826 148.046C330.67 148.03 333.22 146.952 334.261 146.368C334.447 146.264 334.622 146.084 334.403 145.567L333.309 142.497C333.141 142.039 332.678 142.205 332.678 142.205C331.478 142.653 329.778 143.458 325.794 143.448C323.192 143.444 321.269 142.676 320.058 141.472C318.826 140.24 318.21 138.445 318.114 135.895L334.898 135.908C334.898 135.908 335.34 135.904 335.386 135.472C335.404 135.294 335.96 132.031 334.885 128.259L334.863 128.256ZM184.021 131.762C184.257 130.168 184.695 128.841 185.38 127.81C186.409 126.238 187.972 125.378 190.171 125.378C192.37 125.378 193.825 126.242 194.866 127.81C195.556 128.846 195.857 130.221 195.971 131.762L183.967 131.76L184.021 131.762ZM200.698 128.256C200.278 126.673 199.232 125.069 198.552 124.336C197.469 123.179 196.417 122.361 195.366 121.915C193.847 121.269 192.214 120.938 190.564 120.94C188.471 120.94 186.57 121.294 185.03 122.013C183.489 122.738 182.193 123.724 181.174 124.956C180.157 126.188 179.389 127.643 178.9 129.311C178.413 130.958 178.167 132.763 178.167 134.654C178.167 136.588 178.421 138.383 178.928 140.008C179.436 141.644 180.256 143.078 181.35 144.268C182.455 145.468 183.868 146.403 185.567 147.062C187.256 147.715 189.296 148.054 191.654 148.046C196.498 148.03 199.047 146.952 200.088 146.368C200.273 146.264 200.45 146.084 200.23 145.567L199.136 142.497C198.967 142.039 198.504 142.205 198.504 142.205C197.303 142.653 195.604 143.458 191.62 143.448C189.028 143.444 187.095 142.676 185.884 141.472C184.652 140.24 184.035 138.445 183.94 135.895L200.724 135.908C200.724 135.908 201.166 135.904 201.211 135.472C201.229 135.294 201.786 132.031 200.71 128.259L200.698 128.256ZM147.797 142.703C147.14 142.178 147.048 142.05 146.83 141.709C146.498 141.196 146.328 140.466 146.328 139.531C146.328 138.065 146.817 137.003 147.826 136.291C147.815 136.293 149.27 135.038 152.691 135.08C154.213 135.108 155.732 135.237 157.237 135.468V143.085H157.24C157.24 143.085 155.115 143.542 152.714 143.687C149.304 143.892 147.796 142.705 147.807 142.708L147.797 142.703ZM154.468 130.912C153.788 130.862 152.907 130.838 151.855 130.838C150.421 130.838 149.029 131.016 147.733 131.367C146.427 131.719 145.248 132.265 144.238 132.992C143.227 133.714 142.394 134.659 141.806 135.754C141.212 136.859 140.909 138.155 140.909 139.62C140.909 141.108 141.167 142.393 141.677 143.445C142.177 144.488 142.929 145.39 143.866 146.068C144.797 146.746 145.948 147.248 147.276 147.545C148.593 147.846 150.08 147.998 151.716 147.998C153.437 147.998 155.147 147.853 156.804 147.574C158.215 147.33 159.622 147.057 161.021 146.754C161.58 146.625 162.2 146.456 162.2 146.456C162.615 146.351 162.583 145.908 162.583 145.908L162.573 130.611C162.573 127.255 161.677 124.758 159.907 123.218C158.144 121.678 155.562 120.902 152.216 120.902C150.963 120.902 148.934 121.072 147.723 121.315C147.723 121.315 144.069 122.025 142.56 123.206C142.56 123.206 142.229 123.41 142.409 123.872L143.599 127.059C143.747 127.472 144.149 127.331 144.149 127.331C144.149 127.331 144.276 127.281 144.424 127.193C147.643 125.44 151.722 125.493 151.722 125.493C153.528 125.493 154.93 125.86 155.865 126.577C156.78 127.279 157.246 128.34 157.246 130.571V131.279C155.812 131.071 154.484 130.951 154.484 130.951L154.468 130.912ZM289.377 122.276C289.401 122.22 289.413 122.159 289.414 122.098C289.414 122.037 289.402 121.977 289.379 121.921C289.355 121.864 289.321 121.813 289.277 121.771C289.233 121.728 289.182 121.695 289.125 121.672C288.839 121.564 287.415 121.263 286.32 121.195C284.217 121.064 283.049 121.418 281.997 121.89C280.958 122.359 279.809 123.112 279.171 123.983L279.169 121.943C279.169 121.663 278.971 121.436 278.688 121.436H274.396C274.118 121.436 273.916 121.663 273.916 121.943V146.907C273.917 147.041 273.97 147.171 274.066 147.266C274.161 147.361 274.29 147.415 274.425 147.415H278.823C278.958 147.415 279.087 147.361 279.182 147.266C279.277 147.171 279.331 147.041 279.331 146.907V134.372C279.331 132.693 279.516 131.026 279.884 129.974C280.247 128.934 280.741 128.104 281.35 127.509C281.931 126.935 282.641 126.509 283.421 126.267C284.154 126.056 284.912 125.95 285.674 125.95C286.55 125.95 287.511 126.175 287.511 126.175C287.834 126.211 288.014 126.014 288.123 125.723C288.411 124.957 289.228 122.663 289.387 122.207" fill="#FFFFFE"/>
<path fill-rule="evenodd" clip-rule="evenodd" d="M248.302 110.754C247.758 110.59 247.205 110.459 246.645 110.361C245.893 110.236 245.131 110.177 244.368 110.185C241.337 110.185 238.948 111.041 237.271 112.732C235.605 114.411 234.472 116.967 233.903 120.332L233.698 121.467H229.894C229.894 121.467 229.43 121.448 229.333 121.955L228.708 125.439C228.664 125.773 228.808 125.981 229.254 125.979H232.957L229.2 146.951C228.905 148.64 228.569 150.03 228.196 151.082C227.828 152.121 227.469 152.9 227.027 153.465C226.599 154.012 226.194 154.415 225.493 154.649C224.916 154.844 224.251 154.933 223.522 154.933C223.116 154.933 222.576 154.865 222.178 154.785C221.78 154.707 221.573 154.618 221.274 154.492C221.274 154.492 220.84 154.326 220.669 154.762C220.529 155.118 219.543 157.832 219.426 158.168C219.307 158.499 219.474 158.76 219.684 158.836C220.177 159.012 220.543 159.125 221.215 159.283C222.147 159.503 222.933 159.517 223.67 159.517C225.212 159.517 226.617 159.3 227.783 158.879C228.955 158.456 229.976 157.717 230.879 156.718C231.855 155.639 232.469 154.51 233.057 152.97C233.638 151.443 234.133 149.548 234.529 147.34L238.304 125.979H243.824C243.824 125.979 244.289 125.996 244.386 125.491L245.011 122.007C245.054 121.673 244.912 121.465 244.464 121.467H239.106C239.133 121.346 239.376 119.462 239.991 117.688C240.254 116.93 240.748 116.319 241.166 115.9C241.557 115.5 242.038 115.201 242.569 115.027C243.152 114.847 243.759 114.759 244.368 114.767C244.872 114.767 245.368 114.828 245.745 114.907C246.264 115.017 246.466 115.076 246.602 115.116C247.148 115.283 247.221 115.121 247.328 114.857L248.61 111.338C248.741 110.96 248.42 110.801 248.302 110.754ZM173.439 146.996C173.439 147.276 173.239 147.505 172.959 147.505H168.515C168.234 147.505 168.034 147.276 168.034 146.996V111.231C168.034 110.952 168.234 110.726 168.515 110.726H172.959C173.239 110.726 173.439 110.952 173.439 111.231V146.996Z" fill="#FFFFFE"/>
</g>
</g>
<defs>
<clipPath id="clip0_14709_178">
<rect width="290" height="202.894" fill="white" transform="translate(76 39)"/>
</clipPath>
</defs>
</svg>
