<svg width="441" height="281" viewBox="0 0 441 281" fill="none" xmlns="http://www.w3.org/2000/svg">
<path d="M432.9 280.525H8.8999C4.4999 280.525 0.899902 276.925 0.899902 272.525V8.52466C0.899902 4.12466 4.4999 0.524658 8.8999 0.524658H432.9C437.3 0.524658 440.9 4.12466 440.9 8.52466V272.525C440.9 276.925 437.4 280.525 432.9 280.525Z" fill="#1A1A1A"/>
<path d="M135.499 111.485C135.45 111.044 135.058 110.848 134.764 110.848C134.47 110.848 128.049 110.357 128.049 110.357C128.049 110.357 123.589 105.897 123.05 105.456C122.56 104.966 121.629 105.113 121.237 105.211C121.188 105.211 120.257 105.505 118.737 105.995C117.218 101.633 114.62 97.6635 109.964 97.6635H109.523C108.249 95.9971 106.582 95.2129 105.21 95.2129C94.4275 95.2129 89.2323 108.691 87.6149 115.553C83.3999 116.876 80.4102 117.758 80.0671 117.905C77.7146 118.64 77.6656 118.689 77.3715 120.895C77.1264 122.561 71 169.956 71 169.956L118.688 178.876L144.566 173.288C144.615 173.19 135.548 111.926 135.499 111.485V111.485ZM116.091 106.682C114.914 107.025 113.493 107.466 112.072 107.956V107.074C112.072 104.427 111.729 102.271 111.091 100.555C113.542 100.849 115.061 103.545 116.091 106.682ZM108.102 101.094C108.739 102.761 109.18 105.113 109.18 108.348V108.838C106.533 109.671 103.74 110.505 100.848 111.436C102.465 105.26 105.553 102.222 108.102 101.094ZM104.965 98.0556C105.455 98.0556 105.945 98.2516 106.337 98.5457C102.858 100.163 99.1817 104.231 97.6623 112.465C95.3588 113.2 93.1532 113.837 91.0457 114.523C92.8102 108.25 97.2212 98.0556 104.965 98.0556Z" fill="white"/>
<path d="M134.764 110.75C134.47 110.75 128.05 110.259 128.05 110.259C128.05 110.259 123.59 105.799 123.05 105.358C122.854 105.162 122.609 105.064 122.413 105.064L118.835 178.876L144.714 173.288C144.714 173.288 135.646 111.926 135.597 111.485C135.401 111.044 135.058 110.848 134.764 110.75V110.75Z" fill="#8E8E8E"/>
<path d="M109.964 125.061L106.827 134.52C106.827 134.52 103.985 133.001 100.603 133.001C95.5547 133.001 95.3097 136.187 95.3097 136.971C95.3097 141.284 106.582 142.95 106.582 153.096C106.582 161.085 101.534 166.231 94.7215 166.231C86.4876 166.231 82.3706 161.134 82.3706 161.134L84.5761 153.88C84.5761 153.88 88.8892 157.605 92.516 157.605C94.9176 157.605 95.8978 155.742 95.8978 154.37C95.8978 148.734 86.6836 148.489 86.6836 139.176C86.6836 131.384 92.271 123.836 103.593 123.836C107.808 123.787 109.964 125.061 109.964 125.061V125.061Z" fill="black"/>
<path d="M174.758 142.852C172.16 141.48 170.837 140.255 170.837 138.637C170.837 136.579 172.699 135.255 175.591 135.255C178.973 135.255 181.962 136.628 181.962 136.628L184.315 129.423C184.315 129.423 182.159 127.757 175.787 127.757C166.916 127.757 160.74 132.854 160.74 140.01C160.74 144.077 163.632 147.165 167.455 149.371C170.592 151.086 171.67 152.36 171.67 154.223C171.67 156.134 170.102 157.703 167.21 157.703C162.946 157.703 158.878 155.497 158.878 155.497L156.378 162.702C156.378 162.702 160.103 165.201 166.377 165.201C175.493 165.201 182.11 160.692 182.11 152.605C182.011 148.194 178.728 145.156 174.758 142.852V142.852ZM211.124 127.659C206.615 127.659 203.086 129.815 200.391 133.05L200.293 133.001L204.214 112.612H194.068L184.168 164.564H194.313L197.695 146.822C199.019 140.108 202.498 135.942 205.733 135.942C208.037 135.942 208.919 137.51 208.919 139.715C208.919 141.088 208.821 142.852 208.478 144.225L204.655 164.564H214.8L218.77 143.587C219.211 141.382 219.505 138.735 219.505 136.922C219.456 131.089 216.467 127.659 211.124 127.659V127.659ZM242.443 127.659C230.19 127.659 222.103 138.686 222.103 150.988C222.103 158.83 226.955 165.201 236.071 165.201C248.079 165.201 256.166 154.468 256.166 141.872C256.215 134.569 252 127.659 242.443 127.659V127.659ZM237.444 157.458C233.964 157.458 232.542 154.517 232.542 150.792C232.542 144.96 235.532 135.5 241.07 135.5C244.648 135.5 245.874 138.637 245.874 141.627C245.874 147.851 242.786 157.458 237.444 157.458ZM282.191 127.659C275.33 127.659 271.458 133.736 271.458 133.736H271.36L271.948 128.296H262.93C262.489 131.972 261.655 137.608 260.871 141.774L253.863 178.974H264.008L266.851 163.927H267.096C267.096 163.927 269.203 165.25 273.026 165.25C284.985 165.25 292.778 152.998 292.778 140.647C292.729 133.785 289.641 127.659 282.191 127.659V127.659ZM272.487 157.556C269.84 157.556 268.272 156.036 268.272 156.036L269.938 146.577C271.115 140.206 274.447 136.04 277.976 136.04C281.113 136.04 282.044 138.931 282.044 141.627C282.093 148.194 278.172 157.556 272.487 157.556V157.556ZM307.236 113.102C304.001 113.102 301.404 115.7 301.404 118.984C301.404 121.973 303.315 124.081 306.207 124.081H306.305C309.491 124.081 312.186 121.924 312.235 118.199C312.284 115.21 310.275 113.102 307.236 113.102V113.102ZM293.023 164.515H303.168L310.03 128.443H299.835L293.023 164.515ZM335.908 128.394H328.85L329.193 126.727C329.781 123.248 331.84 120.209 335.271 120.209C337.084 120.209 338.506 120.748 338.506 120.748L340.466 112.759C340.466 112.759 338.751 111.877 334.928 111.877C331.35 111.877 327.723 112.906 324.978 115.259C321.499 118.199 319.881 122.463 319.097 126.776L318.803 128.443H314.049L312.529 136.138H317.284L311.892 164.564H322.038L327.429 136.138H334.438L335.908 128.394ZM360.365 128.443C360.365 128.443 353.993 144.47 351.2 153.243H351.102C350.905 150.4 348.602 128.443 348.602 128.443H337.917L344.044 161.477C344.142 162.212 344.093 162.653 343.799 163.143C342.623 165.447 340.613 167.652 338.26 169.269C336.349 170.642 334.193 171.573 332.477 172.161L335.32 180.787C337.378 180.346 341.691 178.631 345.269 175.249C349.876 170.936 354.189 164.221 358.6 155.105L371 128.394H360.365V128.443Z" fill="white"/>
</svg>
