<svg width="441" height="280" viewBox="0 0 441 280" fill="none" xmlns="http://www.w3.org/2000/svg">
<path d="M432.9 280H8.8999C4.4999 280 0.899902 276.4 0.899902 272V8C0.899902 3.6 4.4999 0 8.8999 0H432.9C437.3 0 440.9 3.6 440.9 8V272C440.9 276.4 437.4 280 432.9 280Z" fill="#E6E6E6"/>
<path d="M135.499 110.96C135.45 110.519 135.058 110.323 134.764 110.323C134.47 110.323 128.049 109.833 128.049 109.833C128.049 109.833 123.589 105.373 123.05 104.932C122.56 104.442 121.629 104.589 121.237 104.687C121.188 104.687 120.257 104.981 118.737 105.471C117.218 101.109 114.62 97.1388 109.964 97.1388H109.523C108.249 95.4724 106.582 94.6882 105.21 94.6882C94.4275 94.6882 89.2323 108.166 87.6149 115.028C83.3999 116.351 80.4102 117.234 80.0671 117.381C77.7146 118.116 77.6656 118.165 77.3715 120.37C77.1264 122.037 71 169.431 71 169.431L118.688 178.351L144.566 172.764C144.615 172.666 135.548 111.401 135.499 110.96V110.96ZM116.091 106.157C114.914 106.5 113.493 106.941 112.072 107.431V106.549C112.072 103.902 111.729 101.746 111.091 100.03C113.542 100.325 115.061 103.02 116.091 106.157ZM108.102 100.57C108.739 102.236 109.18 104.589 109.18 107.823V108.313C106.533 109.147 103.74 109.98 100.848 110.911C102.465 104.736 105.553 101.697 108.102 100.57ZM104.965 97.5309C105.455 97.5309 105.945 97.727 106.337 98.021C102.858 99.6384 99.1817 103.706 97.6623 111.94C95.3588 112.675 93.1532 113.313 91.0457 113.999C92.8102 107.725 97.2212 97.5309 104.965 97.5309Z" fill="black"/>
<path d="M134.764 110.225C134.47 110.225 128.05 109.735 128.05 109.735C128.05 109.735 123.59 105.275 123.05 104.834C122.854 104.638 122.609 104.54 122.413 104.54L118.835 178.351L144.714 172.764C144.714 172.764 135.646 111.401 135.597 110.96C135.401 110.519 135.058 110.323 134.764 110.225V110.225Z" fill="#8E8E8E"/>
<path d="M109.964 124.536L106.827 133.996C106.827 133.996 103.985 132.476 100.603 132.476C95.5547 132.476 95.3097 135.662 95.3097 136.446C95.3097 140.759 106.582 142.426 106.582 152.571C106.582 160.56 101.534 165.706 94.7215 165.706C86.4876 165.706 82.3706 160.609 82.3706 160.609L84.5761 153.355C84.5761 153.355 88.8892 157.08 92.516 157.08C94.9176 157.08 95.8978 155.218 95.8978 153.845C95.8978 148.209 86.6836 147.964 86.6836 138.652C86.6836 130.859 92.271 123.311 103.593 123.311C107.808 123.262 109.964 124.536 109.964 124.536V124.536Z" fill="white"/>
<path d="M174.758 142.328C172.16 140.955 170.837 139.73 170.837 138.113C170.837 136.054 172.699 134.731 175.591 134.731C178.973 134.731 181.962 136.103 181.962 136.103L184.315 128.898C184.315 128.898 182.159 127.232 175.787 127.232C166.916 127.232 160.74 132.329 160.74 139.485C160.74 143.553 163.632 146.641 167.455 148.846C170.592 150.561 171.67 151.836 171.67 153.698C171.67 155.61 170.102 157.178 167.21 157.178C162.946 157.178 158.878 154.973 158.878 154.973L156.378 162.177C156.378 162.177 160.103 164.677 166.377 164.677C175.493 164.677 182.11 160.168 182.11 152.081C182.011 147.67 178.728 144.631 174.758 142.328V142.328ZM211.124 127.134C206.615 127.134 203.086 129.29 200.391 132.525L200.293 132.476L204.214 112.087H194.068L184.168 164.04H194.313L197.695 146.297C199.019 139.583 202.498 135.417 205.733 135.417C208.037 135.417 208.919 136.985 208.919 139.191C208.919 140.563 208.821 142.328 208.478 143.7L204.655 164.04H214.8L218.77 143.063C219.211 140.857 219.505 138.211 219.505 136.397C219.456 130.565 216.467 127.134 211.124 127.134V127.134ZM242.443 127.134C230.19 127.134 222.103 138.162 222.103 150.463C222.103 158.305 226.955 164.677 236.071 164.677C248.079 164.677 256.166 153.943 256.166 141.347C256.215 134.045 252 127.134 242.443 127.134V127.134ZM237.444 156.933C233.964 156.933 232.542 153.992 232.542 150.267C232.542 144.435 235.532 134.976 241.07 134.976C244.648 134.976 245.874 138.113 245.874 141.102C245.874 147.327 242.786 156.933 237.444 156.933ZM282.191 127.134C275.33 127.134 271.458 133.211 271.458 133.211H271.36L271.948 127.771H262.93C262.489 131.447 261.655 137.083 260.871 141.249L253.863 178.449H264.008L266.851 163.403H267.096C267.096 163.403 269.203 164.726 273.026 164.726C284.985 164.726 292.778 152.473 292.778 140.122C292.729 133.26 289.641 127.134 282.191 127.134V127.134ZM272.487 157.031C269.84 157.031 268.272 155.512 268.272 155.512L269.938 146.052C271.115 139.681 274.447 135.515 277.976 135.515C281.113 135.515 282.044 138.407 282.044 141.102C282.093 147.67 278.172 157.031 272.487 157.031V157.031ZM307.236 112.577C304.001 112.577 301.404 115.175 301.404 118.459C301.404 121.449 303.315 123.556 306.207 123.556H306.305C309.491 123.556 312.186 121.4 312.235 117.675C312.284 114.685 310.275 112.577 307.236 112.577V112.577ZM293.023 163.991H303.168L310.03 127.918H299.835L293.023 163.991ZM335.908 127.869H328.85L329.193 126.203C329.781 122.723 331.84 119.684 335.271 119.684C337.084 119.684 338.506 120.223 338.506 120.223L340.466 112.234C340.466 112.234 338.751 111.352 334.928 111.352C331.35 111.352 327.723 112.381 324.978 114.734C321.499 117.675 319.881 121.939 319.097 126.252L318.803 127.918H314.049L312.529 135.613H317.284L311.892 164.04H322.038L327.429 135.613H334.438L335.908 127.869ZM360.365 127.918C360.365 127.918 353.993 143.945 351.2 152.718H351.102C350.905 149.875 348.602 127.918 348.602 127.918H337.917L344.044 160.952C344.142 161.687 344.093 162.128 343.799 162.618C342.623 164.922 340.613 167.127 338.26 168.745C336.349 170.117 334.193 171.048 332.477 171.636L335.32 180.263C337.378 179.821 341.691 178.106 345.269 174.724C349.876 170.411 354.189 163.697 358.6 154.58L371 127.869H360.365V127.918Z" fill="black"/>
</svg>
