<svg width="440" height="280" viewBox="0 0 440 280" fill="none" xmlns="http://www.w3.org/2000/svg">
<path d="M432 280H8C3.6 280 0 276.4 0 272V8C0 3.6 3.6 0 8 0H432C436.4 0 440 3.6 440 8V272C440 276.4 436.4 280 432 280Z" fill="black"/>
<path d="M189.637 166.467V159.028C190.548 159.787 191.459 160.395 192.673 161.002C193.888 161.609 195.102 162.065 196.469 162.52C197.835 162.975 199.049 163.279 200.416 163.431C201.782 163.583 202.997 163.735 204.059 163.735C207.855 163.735 210.739 162.975 212.713 161.609C214.687 160.243 215.598 158.117 215.598 155.385C215.598 153.866 215.294 152.652 214.687 151.589C214.079 150.526 213.169 149.464 212.106 148.705C211.043 147.794 209.677 147.035 208.159 146.124C206.64 145.365 204.97 144.454 203.3 143.543C201.479 142.632 199.657 141.569 198.139 140.658C196.469 139.747 195.102 138.685 193.888 137.47C192.673 136.255 191.762 135.041 191.003 133.523C190.244 132.005 189.94 130.335 189.94 128.361C189.94 125.932 190.548 123.806 191.61 121.985C192.673 120.163 194.039 118.645 195.861 117.582C197.531 116.367 199.505 115.608 201.782 115.001C204.059 114.394 206.337 114.09 208.614 114.09C213.928 114.09 217.723 114.697 220.152 116.064V123.199C216.964 121.074 213.017 119.859 208.007 119.859C206.64 119.859 205.274 120.011 203.908 120.315C202.541 120.618 201.327 121.074 200.264 121.681C199.201 122.288 198.29 123.199 197.683 124.262C197.076 125.325 196.62 126.539 196.62 128.057C196.62 129.424 196.924 130.638 197.379 131.549C197.835 132.612 198.594 133.523 199.657 134.282C200.719 135.041 201.934 135.952 203.3 136.711C204.667 137.47 206.337 138.381 208.159 139.292C210.132 140.203 211.954 141.265 213.624 142.328C215.294 143.391 216.812 144.605 218.179 145.82C219.545 147.035 220.456 148.553 221.215 150.071C221.974 151.589 222.278 153.411 222.278 155.385C222.278 157.965 221.822 160.243 220.759 162.065C219.697 163.886 218.33 165.405 216.66 166.467C214.839 167.682 212.865 168.441 210.588 168.896C208.31 169.352 205.881 169.655 203.3 169.655C202.389 169.655 201.479 169.655 200.112 169.504C198.898 169.352 197.531 169.2 196.317 168.896C195.102 168.593 193.736 168.289 192.673 167.985C191.155 167.378 190.244 166.923 189.637 166.467Z" fill="white"/>
<path d="M259.017 168.593H250.364L233.663 150.223H233.512V168.593H227.287V111.813H233.512V147.794H233.663L249.604 130.183H257.651L239.888 148.704L259.017 168.593Z" fill="white"/>
<path d="M294.998 130.183L277.539 174.665C274.351 182.56 269.948 186.507 264.331 186.507C262.813 186.507 261.446 186.355 260.383 186.052V180.586C261.75 181.042 262.964 181.194 264.027 181.194C267.063 181.194 269.341 179.372 271.011 175.728L274.047 168.441L259.169 130.183H266.001L276.324 159.635C276.476 159.939 276.78 161.002 277.083 162.52H277.235C277.387 161.913 277.539 161.002 277.994 159.635L288.773 130.031H294.998V130.183Z" fill="white"/>
<path d="M304.563 147.642V152.955C304.563 156.144 305.626 158.876 307.599 161.002C309.725 163.279 312.306 164.342 315.342 164.342C318.986 164.342 321.87 162.975 323.996 160.091C326.121 157.206 327.184 153.259 327.184 148.249C327.184 143.998 326.273 140.658 324.299 138.229C322.326 135.8 319.745 134.585 316.405 134.585C312.913 134.585 310.028 135.8 307.903 138.381C305.626 140.658 304.563 143.846 304.563 147.642ZM304.715 162.975L304.563 186.204H298.49V130.183H304.563V136.863H304.715C307.751 131.701 312.154 129.272 317.923 129.272C322.781 129.272 326.728 130.942 329.461 134.434C332.194 137.925 333.56 142.48 333.56 148.249C333.56 154.625 332.042 159.787 328.854 163.583C325.818 167.378 321.567 169.352 316.101 169.352C311.243 169.504 307.296 167.378 304.715 162.975Z" fill="white"/>
<path d="M364.228 145.82C364.228 142.328 363.317 139.444 361.647 137.47C359.977 135.496 357.7 134.585 354.663 134.585C351.779 134.585 349.35 135.648 347.376 137.622C345.402 139.747 344.188 142.328 343.58 145.82H364.228ZM370.452 150.982H343.58C343.732 155.233 344.795 158.573 347.072 160.85C349.198 163.127 352.234 164.342 356.03 164.342C360.28 164.342 364.228 162.975 367.871 160.091V165.86C364.531 168.289 360.129 169.504 354.511 169.504C349.198 169.504 344.947 167.834 341.759 164.342C338.722 160.85 337.204 155.992 337.204 149.615C337.204 143.694 338.874 138.836 342.214 135.041C345.554 131.245 349.805 129.424 354.815 129.424C359.825 129.424 363.62 131.094 366.353 134.282C369.086 137.47 370.452 142.024 370.452 147.794V150.982Z" fill="white"/>
<path d="M115.852 169.352C100.519 169.352 93.5352 161.609 93.5352 155.84C93.5352 152.955 95.8125 150.83 98.8488 150.83C105.377 150.83 103.707 160.698 116.004 160.698C122.229 160.698 125.872 156.903 125.872 153.411C125.872 151.285 124.658 148.856 120.559 147.945L106.895 144.454C95.9643 141.721 93.9907 135.496 93.9907 129.879C93.9907 118.189 104.77 113.938 114.942 113.938C124.354 113.938 135.589 119.1 135.589 126.235C135.589 129.272 133.008 130.942 130.123 130.942C124.506 130.942 125.417 123.047 114.182 123.047C108.565 123.047 105.681 125.628 105.681 129.272C105.681 132.915 110.083 134.13 113.879 135.041L123.899 137.318C134.982 139.747 137.866 146.275 137.866 152.5C137.866 161.913 130.427 169.352 115.852 169.352ZM158.21 149.008C158.665 146.579 158.817 143.998 158.817 141.417C158.817 117.43 139.536 97.9971 115.701 97.9971C113.12 97.9971 110.691 98.149 108.262 98.6044C104.466 96.479 100.215 95.2644 95.5088 95.2644C81.3897 95.2644 69.8516 106.803 69.8516 121.073C69.8516 125.78 71.0661 130.031 73.1916 133.826C72.7361 136.255 72.5843 138.836 72.5843 141.417C72.5843 165.404 91.8652 184.837 115.701 184.837C118.282 184.837 120.711 184.685 123.14 184.23C126.935 186.355 131.186 187.57 135.892 187.57C150.012 187.57 161.55 176.032 161.55 161.761C161.55 157.206 160.335 152.804 158.21 149.008Z" fill="white"/>
</svg>
