<svg width="440" height="281" viewBox="0 0 440 281" fill="none" xmlns="http://www.w3.org/2000/svg">
<path d="M432 280.025H8C3.6 280.025 0 276.425 0 272.025V8.02466C0 3.62466 3.6 0.0246582 8 0.0246582H432C436.4 0.0246582 440 3.62466 440 8.02466V272.025C440 276.425 436.4 280.025 432 280.025Z" fill="#E6E6E6"/>
<g clip-path="url(#clip0_14709_187)">
<path d="M73.41 132.916C72.784 132.916 72.2872 133.4 72.2063 134.09L70.0127 150.753L72.2063 167.128C72.2872 167.818 72.7837 168.299 73.41 168.299C74.0162 168.299 74.5099 167.822 74.6066 167.134L77.2067 150.752L74.6066 134.087C74.513 133.399 74.0131 132.916 73.41 132.916ZM85.7462 123.812C85.6429 123.096 85.13 122.602 84.4977 122.602C83.8621 122.602 83.3362 123.112 83.2492 123.812C83.2492 123.818 80.3006 150.753 80.3006 150.753L83.2492 177.096C83.3332 177.803 83.8591 178.313 84.4977 178.313C85.1267 178.313 85.6399 177.816 85.7429 177.103L89.0977 150.753L85.7462 123.812ZM132.214 98.9616C131.005 98.9616 130.004 99.9519 129.946 101.21L127.598 150.775L129.946 182.806C130.008 184.058 131.005 185.045 132.214 185.045C133.418 185.045 134.415 184.055 134.485 182.8V182.81L137.14 150.775L134.485 101.21C134.414 99.9519 133.417 98.9616 132.214 98.9616ZM108.164 116.189C107.235 116.189 106.477 116.931 106.402 117.921L103.757 150.762L106.402 182.535C106.473 183.519 107.235 184.261 108.164 184.261C109.083 184.261 109.841 183.519 109.922 182.535L112.929 150.762L109.922 117.914C109.841 116.931 109.083 116.189 108.164 116.189ZM156.655 185.042C158.155 185.042 159.374 183.832 159.436 182.284L161.739 150.791L159.439 84.8021C159.378 83.2535 158.158 82.0438 156.658 82.0438C155.145 82.0438 153.923 83.2569 153.874 84.8054L151.832 150.788L153.874 182.293C153.922 183.829 155.145 185.042 156.655 185.042ZM206.691 185.191C208.756 185.191 210.459 183.491 210.498 181.4L212.104 150.81L210.497 74.5982C210.462 72.511 208.755 70.8078 206.691 70.8078C204.623 70.8078 202.916 72.508 202.884 74.6015L201.448 150.785C201.448 150.833 202.884 181.419 202.884 181.419C202.917 183.49 204.626 185.191 206.691 185.191ZM181.482 185.071C183.28 185.071 184.728 183.629 184.776 181.79V181.813L186.731 150.798L184.773 84.3314C184.725 82.4924 183.276 81.0538 181.479 81.0538C179.669 81.0538 178.221 82.4927 178.182 84.3314L176.444 150.801L178.186 181.81C178.224 183.629 179.673 185.071 181.482 185.071ZM120.142 184.781C121.21 184.781 122.075 183.926 122.156 182.8L124.988 150.762L122.156 120.286C122.078 119.16 121.214 118.311 120.142 118.311C119.059 118.311 118.194 119.166 118.126 120.299L115.632 150.762L118.126 182.797C118.197 183.926 119.058 184.781 120.142 184.781ZM96.2827 183.026C97.0632 183.026 97.6955 182.41 97.7858 181.558L100.967 150.756L97.7888 118.792C97.6952 117.937 97.0629 117.321 96.2824 117.321C95.4918 117.321 94.8596 117.94 94.7789 118.792L91.9788 150.756L94.7789 181.552C94.8565 182.406 95.4888 183.026 96.2827 183.026ZM194.038 83.2247C192.087 83.2247 190.522 84.7767 190.483 86.7638L188.896 150.804L190.483 181.619C190.522 183.581 192.083 185.133 194.038 185.133C195.987 185.133 197.542 183.584 197.587 181.597V181.623L199.368 150.807L197.587 86.7572C197.542 84.7767 195.987 83.2247 194.038 83.2247ZM144.389 185.107C145.738 185.107 146.851 184.006 146.915 182.603L149.393 150.784L146.915 89.8831C146.848 88.4764 145.738 87.3798 144.389 87.3798C143.028 87.3798 141.918 88.4797 141.86 89.8831L139.667 150.784L141.863 182.616C141.918 184.006 143.028 185.107 144.389 185.107ZM172.056 182.103V182.087L174.185 150.794L172.056 82.5827C172.004 80.8893 170.669 79.5601 169.02 79.5601C167.362 79.5601 166.026 80.8859 165.981 82.5827L164.091 150.791L165.984 182.1C166.03 183.777 167.365 185.103 169.02 185.103C170.672 185.103 172.001 183.777 172.056 182.09L172.056 182.103ZM333.094 111.475C328.038 111.475 323.216 112.498 318.822 114.34C315.886 81.086 288 55 253.985 55C245.662 55 237.548 56.6389 230.383 59.41C227.599 60.4875 226.857 61.5972 226.831 63.749V180.854C226.86 183.113 228.612 184.993 230.815 185.216C230.909 185.226 332.433 185.277 333.091 185.277C353.467 185.277 369.987 168.757 369.987 148.378C369.987 127.999 353.47 111.475 333.094 111.475ZM219.288 63.6459C217.072 63.6459 215.253 65.4655 215.22 67.7009L213.556 150.82L215.224 180.987C215.253 183.191 217.072 185.007 219.288 185.007C221.498 185.007 223.318 183.191 223.35 180.955V180.99L225.16 150.82L223.35 67.6946C223.318 65.4655 221.498 63.6459 219.288 63.6459ZM99.8087 208.734C95.444 207.708 94.263 207.16 94.263 205.431C94.263 204.212 95.2469 202.95 98.1956 202.95C100.715 202.95 102.683 203.972 104.451 205.782L108.423 201.931C105.826 199.217 102.68 197.604 98.3959 197.604C92.9633 197.604 88.5597 200.672 88.5597 205.669C88.5597 211.095 92.1022 212.709 97.1735 213.886C102.364 215.064 103.309 215.854 103.309 217.625C103.309 219.709 101.77 220.616 98.512 220.616C95.8765 220.616 93.3989 219.712 91.4699 217.464L87.4979 221.006C89.5818 224.074 93.5983 226 98.1953 226C105.712 226 109.015 222.461 109.015 217.232C109.016 211.251 104.177 209.757 99.8087 208.734ZM125.146 197.604C117.636 197.604 113.193 203.424 113.193 211.802C113.193 220.181 117.635 225.997 125.146 225.997C132.656 225.997 137.105 220.181 137.105 211.802C137.105 203.424 132.656 197.604 125.146 197.604ZM125.146 220.535C120.704 220.535 118.852 216.719 118.852 211.805C118.852 206.889 120.703 203.072 125.146 203.072C129.594 203.072 131.44 206.889 131.44 211.805C131.44 216.719 129.594 220.535 125.146 220.535ZM159.329 213.496C159.329 217.899 157.161 220.616 153.664 220.616C150.164 220.616 148.041 217.822 148.041 213.418V198.034H142.531V213.496C142.531 221.516 147.019 226 153.664 226C160.665 226 164.836 221.397 164.836 213.419V198.034H159.329V213.496ZM188.589 209.68C188.589 211.215 188.667 214.674 188.667 215.696C188.312 214.986 187.409 213.612 186.741 212.586L176.982 198.03H171.714V225.568H177.143V213.451C177.143 211.916 177.066 208.457 177.066 207.434C177.417 208.141 178.327 209.518 178.992 210.544L189.102 225.568H194.018V198.03H188.589L188.589 209.68ZM209.71 198.034H201.097V225.571H209.313C216.395 225.571 223.399 221.477 223.399 211.802C223.399 201.731 217.576 198.034 209.71 198.034ZM209.313 220.222H206.604V203.386H209.514C215.337 203.386 217.737 206.176 217.737 211.802C217.737 216.838 215.098 220.222 209.313 220.222ZM240.429 203.069C242.907 203.069 244.481 204.173 245.464 206.06L250.578 203.702C248.845 200.124 245.697 197.604 240.506 197.604C233.315 197.604 228.276 203.424 228.276 211.802C228.276 220.493 233.112 225.997 240.309 225.997C245.306 225.997 248.61 223.678 250.497 219.784L245.858 217.029C244.402 219.471 242.944 220.532 240.467 220.532C236.338 220.532 233.938 216.754 233.938 211.802C233.935 206.692 236.303 203.069 240.429 203.069ZM260.853 198.034H255.346V225.571H271.896V220.138H260.853V198.034ZM286.403 197.604C278.887 197.604 274.444 203.424 274.444 211.802C274.444 220.181 278.887 225.997 286.403 225.997C293.913 225.997 298.359 220.181 298.359 211.802C298.359 203.424 293.913 197.604 286.403 197.604ZM286.403 220.535C281.954 220.535 280.109 216.719 280.109 211.805C280.109 206.889 281.954 203.072 286.403 203.072C290.843 203.072 292.691 206.889 292.691 211.805C292.691 216.719 290.843 220.535 286.403 220.535ZM320.58 213.496C320.58 217.899 318.422 220.616 314.922 220.616C311.415 220.616 309.295 217.822 309.295 213.418V198.034H303.789V213.496C303.789 221.516 308.273 226 314.922 226C321.922 226 326.09 221.397 326.09 213.419V198.034H320.58V213.496ZM341.585 198.034H332.975V225.571H341.191C348.276 225.571 355.273 221.477 355.273 211.802C355.273 201.731 349.453 198.034 341.585 198.034ZM341.191 220.222H338.478V203.386H341.391C347.208 203.386 349.608 206.176 349.608 211.802C349.608 216.838 346.972 220.222 341.191 220.222Z" fill="black"/>
</g>
<defs>
<clipPath id="clip0_14709_187">
<rect width="300" height="171" fill="white" transform="translate(70 55)"/>
</clipPath>
</defs>
</svg>
