<svg width="440" height="281" viewBox="0 0 440 281" fill="none" xmlns="http://www.w3.org/2000/svg">
<path d="M432 280.5H8C3.6 280.5 0 276.9 0 272.5V8.5C0 4.1 3.6 0.5 8 0.5H432C436.4 0.5 440 4.1 440 8.5V272.5C440 276.9 436.4 280.5 432 280.5Z" fill="black"/>
<g clip-path="url(#clip0_14713_158)">
<path d="M73.41 133.391C72.784 133.391 72.2872 133.875 72.2063 134.565L70.0127 151.228L72.2063 167.603C72.2872 168.294 72.7837 168.774 73.41 168.774C74.0162 168.774 74.5099 168.297 74.6066 167.609L77.2067 151.228L74.6066 134.562C74.513 133.875 74.0131 133.391 73.41 133.391ZM85.7462 124.287C85.6429 123.571 85.13 123.077 84.4977 123.077C83.8621 123.077 83.3362 123.587 83.2492 124.287C83.2492 124.294 80.3006 151.228 80.3006 151.228L83.2492 177.572C83.3332 178.278 83.8591 178.788 84.4977 178.788C85.1267 178.788 85.6399 178.291 85.7429 177.578L89.0977 151.228L85.7462 124.287ZM132.214 99.437C131.005 99.437 130.004 100.427 129.946 101.685L127.598 151.25L129.946 183.282C130.008 184.533 131.005 185.521 132.214 185.521C133.418 185.521 134.415 184.53 134.485 183.275V183.285L137.14 151.25L134.485 101.685C134.414 100.427 133.417 99.437 132.214 99.437ZM108.164 116.664C107.235 116.664 106.477 117.406 106.402 118.396L103.757 151.237L106.402 183.011C106.473 183.994 107.235 184.736 108.164 184.736C109.083 184.736 109.841 183.994 109.922 183.011L112.929 151.237L109.922 118.39C109.841 117.406 109.083 116.664 108.164 116.664ZM156.655 185.518C158.155 185.518 159.374 184.308 159.436 182.759L161.739 151.266L159.439 85.2775C159.378 83.7289 158.158 82.5191 156.658 82.5191C155.145 82.5191 153.923 83.7322 153.874 85.2808L151.832 151.263L153.874 182.769C153.922 184.305 155.145 185.518 156.655 185.518ZM206.691 185.666C208.756 185.666 210.459 183.966 210.498 181.875L212.104 151.286L210.497 75.0735C210.462 72.9863 208.755 71.2832 206.691 71.2832C204.623 71.2832 202.916 72.9833 202.884 75.0769L201.448 151.26C201.448 151.309 202.884 181.894 202.884 181.894C202.917 183.966 204.626 185.666 206.691 185.666ZM181.482 185.547C183.28 185.547 184.728 184.104 184.776 182.266V182.288L186.731 151.273L184.773 84.8067C184.725 82.9678 183.276 81.5292 181.479 81.5292C179.669 81.5292 178.221 82.9681 178.182 84.8067L176.444 151.276L178.186 182.285C178.224 184.104 179.673 185.547 181.482 185.547ZM120.142 185.256C121.21 185.256 122.075 184.401 122.156 183.275L124.988 151.238L122.156 120.761C122.078 119.635 121.214 118.787 120.142 118.787C119.059 118.787 118.194 119.641 118.126 120.774L115.632 151.238L118.126 183.272C118.197 184.401 119.058 185.256 120.142 185.256ZM96.2827 183.501C97.0632 183.501 97.6955 182.885 97.7858 182.033L100.967 151.231L97.7888 119.267C97.6952 118.413 97.0629 117.796 96.2824 117.796C95.4918 117.796 94.8596 118.416 94.7789 119.267L91.9788 151.231L94.7789 182.027C94.8565 182.882 95.4888 183.501 96.2827 183.501ZM194.038 83.7001C192.087 83.7001 190.522 85.252 190.483 87.2392L188.896 151.279L190.483 182.095C190.522 184.056 192.083 185.608 194.038 185.608C195.987 185.608 197.542 184.059 197.587 182.072V182.098L199.368 151.283L197.587 87.2325C197.542 85.252 195.987 83.7001 194.038 83.7001ZM144.389 185.582C145.738 185.582 146.851 184.482 146.915 183.078L149.393 151.26L146.915 90.3585C146.848 88.9518 145.738 87.8551 144.389 87.8551C143.028 87.8551 141.918 88.9551 141.86 90.3585L139.667 151.26L141.863 183.091C141.918 184.482 143.028 185.582 144.389 185.582ZM172.056 182.579V182.562L174.185 151.27L172.056 83.0581C172.004 81.3646 170.669 80.0355 169.02 80.0355C167.362 80.0355 166.026 81.3613 165.981 83.0581L164.091 151.266L165.984 182.575C166.03 184.253 167.365 185.578 169.02 185.578C170.672 185.578 172.001 184.253 172.056 182.566L172.056 182.579ZM333.094 111.951C328.038 111.951 323.216 112.973 318.822 114.815C315.886 81.5613 288 55.4753 253.985 55.4753C245.662 55.4753 237.548 57.1143 230.383 59.8853C227.599 60.9629 226.857 62.0725 226.831 64.2243V181.33C226.86 183.588 228.612 185.469 230.815 185.692C230.909 185.701 332.433 185.753 333.091 185.753C353.467 185.753 369.987 169.232 369.987 148.853C369.987 128.474 353.47 111.951 333.094 111.951ZM219.288 64.1213C217.072 64.1213 215.253 65.9408 215.22 68.1763L213.556 151.295L215.224 181.462C215.253 183.666 217.072 185.482 219.288 185.482C221.498 185.482 223.318 183.666 223.35 181.43V181.466L225.16 151.295L223.35 68.1699C223.318 65.9408 221.498 64.1213 219.288 64.1213ZM99.8087 209.21C95.444 208.184 94.263 207.635 94.263 205.906C94.263 204.687 95.2469 203.425 98.1956 203.425C100.715 203.425 102.683 204.448 104.451 206.258L108.423 202.406C105.826 199.693 102.68 198.08 98.3959 198.08C92.9633 198.08 88.5597 201.148 88.5597 206.145C88.5597 211.571 92.1022 213.184 97.1735 214.362C102.364 215.539 103.309 216.329 103.309 218.1C103.309 220.185 101.77 221.091 98.512 221.091C95.8765 221.091 93.3989 220.188 91.4699 217.939L87.4979 221.482C89.5818 224.55 93.5983 226.476 98.1953 226.476C105.712 226.476 109.015 222.937 109.015 217.707C109.016 211.726 104.177 210.232 99.8087 209.21ZM125.146 198.08C117.636 198.08 113.193 203.9 113.193 212.278C113.193 220.656 117.635 226.472 125.146 226.472C132.656 226.472 137.105 220.656 137.105 212.278C137.105 203.9 132.656 198.08 125.146 198.08ZM125.146 221.011C120.704 221.011 118.852 217.194 118.852 212.281C118.852 207.364 120.703 203.548 125.146 203.548C129.594 203.548 131.44 207.364 131.44 212.281C131.44 217.194 129.594 221.011 125.146 221.011ZM159.329 213.971C159.329 218.375 157.161 221.091 153.664 221.091C150.164 221.091 148.041 218.297 148.041 213.894V198.509H142.531V213.971C142.531 221.991 147.019 226.476 153.664 226.476C160.665 226.476 164.836 221.872 164.836 213.894V198.509H159.329V213.971ZM188.589 210.155C188.589 211.691 188.667 215.149 188.667 216.172C188.312 215.462 187.409 214.088 186.741 213.062L176.982 198.506H171.714V226.044H177.143V213.926C177.143 212.391 177.066 208.932 177.066 207.91C177.417 208.616 178.327 209.994 178.992 211.02L189.102 226.043H194.018V198.506H188.589L188.589 210.155ZM209.71 198.509H201.097V226.046H209.313C216.395 226.046 223.399 221.953 223.399 212.278C223.399 202.206 217.576 198.509 209.71 198.509ZM209.313 220.697H206.604V203.861H209.514C215.337 203.861 217.737 206.651 217.737 212.278C217.737 217.314 215.098 220.697 209.313 220.697ZM240.429 203.545C242.907 203.545 244.481 204.648 245.464 206.535L250.578 204.177C248.845 200.599 245.697 198.08 240.506 198.08C233.315 198.08 228.276 203.9 228.276 212.278C228.276 220.969 233.112 226.472 240.309 226.472C245.306 226.472 248.61 224.153 250.497 220.259L245.858 217.504C244.402 219.946 242.944 221.008 240.467 221.008C236.338 221.008 233.938 217.23 233.938 212.278C233.935 207.168 236.303 203.545 240.429 203.545ZM260.853 198.509H255.346V226.046H271.896V220.614H260.853V198.509ZM286.403 198.08C278.887 198.08 274.444 203.9 274.444 212.278C274.444 220.656 278.887 226.472 286.403 226.472C293.913 226.472 298.359 220.656 298.359 212.278C298.359 203.9 293.913 198.08 286.403 198.08ZM286.403 221.011C281.954 221.011 280.109 217.194 280.109 212.281C280.109 207.364 281.954 203.548 286.403 203.548C290.843 203.548 292.691 207.364 292.691 212.281C292.691 217.194 290.843 221.011 286.403 221.011ZM320.58 213.971C320.58 218.375 318.422 221.091 314.922 221.091C311.415 221.091 309.295 218.297 309.295 213.894V198.509H303.789V213.971C303.789 221.991 308.273 226.476 314.922 226.476C321.922 226.476 326.09 221.872 326.09 213.894V198.509H320.58V213.971ZM341.585 198.509H332.975V226.046H341.191C348.276 226.046 355.273 221.953 355.273 212.278C355.273 202.206 349.453 198.509 341.585 198.509ZM341.191 220.697H338.478V203.861H341.391C347.208 203.861 349.608 206.651 349.608 212.278C349.608 217.314 346.972 220.697 341.191 220.697Z" fill="white"/>
</g>
<defs>
<clipPath id="clip0_14713_158">
<rect width="300" height="171" fill="white" transform="translate(70 55.4753)"/>
</clipPath>
</defs>
</svg>
