<svg width="441" height="281" viewBox="0 0 441 281" fill="none" xmlns="http://www.w3.org/2000/svg">
<path d="M432.6 280.025H8.59961C4.19961 280.025 0.599609 276.425 0.599609 272.025V8.02466C0.599609 3.62466 4.19961 0.0246582 8.59961 0.0246582H432.6C437 0.0246582 440.6 3.62466 440.6 8.02466V272.025C440.6 276.425 437 280.025 432.6 280.025Z" fill="#E6E6E6"/>
<path d="M182.366 103.397C180.479 103.397 178.598 103.39 176.711 103.39C172.239 103.381 168.113 106.801 164.962 109.512C161.941 112.251 159.193 115.269 156.745 118.53C155.827 116.076 154.718 113.695 153.429 111.405C152.615 109.725 151.453 108.237 150.02 107.039C148.588 105.84 146.918 104.96 145.12 104.454C143.259 104.202 141.377 104.137 139.502 104.261C137.925 104.255 133.445 104.261 133.445 104.261C133.445 104.261 128.957 104.255 127.384 104.261C125.509 104.137 123.627 104.202 121.766 104.454C119.968 104.96 118.298 105.84 116.866 107.039C115.433 108.237 114.271 109.725 113.457 111.405C112.177 113.69 111.077 116.071 110.166 118.527C107.719 115.265 104.967 112.248 101.949 109.508C98.7918 106.798 94.672 103.378 90.1943 103.387L84.5386 103.394C81.8449 103.398 79.1532 103.402 76.4636 103.406C74.5003 103.416 70.162 102.9 71.188 106.092C71.4413 106.864 72.3153 107.558 72.8125 108.201L74.437 110.471L76.717 114.296L81.7203 123.828C85.4705 130.794 89.8099 137.426 94.691 143.652C98.3738 148.199 102.82 152.791 108.323 155.045C104.169 162.766 100.025 170.492 95.8911 178.225L84.3961 199.094C83.7568 200.099 83.347 201.233 83.196 202.415C83.1991 204.55 86.369 204.613 87.8826 204.623L92.791 204.572C95.6346 204.54 98.4783 204.509 101.322 204.477L106.389 204.363C108.497 204.178 110.541 203.543 112.383 202.502C114.226 201.461 115.824 200.038 117.07 198.327C117.887 197.187 125.531 184.647 128.628 179.581L133.464 171.93L138.296 179.581L149.854 198.327C151.101 200.038 152.699 201.461 154.541 202.502C156.383 203.543 158.427 204.178 160.535 204.363C162.214 204.521 163.924 204.458 165.602 204.477C168.444 204.504 171.287 204.536 174.133 204.572L179.041 204.623C180.555 204.613 183.728 204.55 183.728 202.415C183.579 201.231 183.168 200.097 182.525 199.09L181.986 198.134L171.039 178.225C166.893 170.499 162.745 162.772 158.594 155.045C164.104 152.787 168.547 148.199 172.23 143.652C177.113 137.426 181.454 130.795 185.204 123.828L190.213 114.296L192.493 110.471C193 109.689 193.538 108.929 194.115 108.201C194.764 107.586 195.312 106.871 195.742 106.092C196.768 102.9 192.43 103.416 190.47 103.406C187.772 103.402 185.077 103.398 182.385 103.394L182.366 103.397Z" fill="black"/>
<path d="M142.783 121.171L143.645 121.026C144.042 120.942 144.433 120.829 144.813 120.687C145.591 120.416 146.313 120.006 146.944 119.477C147.228 119.275 147.468 119.017 147.65 118.72C145.155 118.768 143.296 118.752 142.068 118.657C141.732 118.606 141.488 119.471 141.33 121.19C141.314 121.323 142.121 121.238 142.786 121.146L142.783 121.171ZM130.212 132.777C130.18 132.809 130.164 132.859 130.164 132.904C130.164 132.948 130.196 133.011 130.234 133.046C130.351 133.157 130.481 133.255 130.614 133.344C131.405 133.87 132.333 134.142 133.28 134.129C134.23 134.146 135.163 133.872 135.953 133.344C136.093 133.255 136.226 133.155 136.352 133.046C136.447 132.967 136.491 132.844 136.421 132.73C136.333 132.641 136.193 132.641 136.105 132.723L135.747 132.992H135.744C135.01 133.462 134.157 133.711 133.286 133.711C132.415 133.711 131.563 133.462 130.829 132.992H130.823C130.706 132.909 130.594 132.819 130.487 132.723C130.449 132.692 130.398 132.673 130.345 132.676C130.291 132.679 130.243 132.707 130.212 132.739V132.777ZM141.149 131.143C141.139 131.123 141.131 131.101 141.124 131.08C141.13 131.102 141.14 131.124 141.156 131.143H141.149ZM147.03 124.164C146.812 123.68 146.486 123.253 146.077 122.916C144.937 122.061 143.353 122.124 142.286 123.074C141.836 123.532 141.474 124.069 141.219 124.658C140.579 126.029 140.264 127.53 140.301 129.044C140.33 129.735 140.598 130.395 141.057 130.912C141.662 131.464 142.423 131.815 143.236 131.916C144.037 132.156 144.895 132.122 145.668 131.811C146.439 131.247 146.954 130.401 147.103 129.458C147.46 128.353 147.617 127.193 147.565 126.032C147.5 125.372 147.318 124.728 147.027 124.132L147.03 124.164Z" fill="white"/>
<path d="M144.262 126.95C144.656 126.801 145.063 126.686 145.478 126.608C144.591 126.672 144.129 126.314 144.046 125.538L143.882 123.955C143.913 124.658 143.777 125.357 143.489 125.997C143.386 126.175 143.239 126.322 143.061 126.425L142.533 126.592C142.338 126.663 142.134 126.707 141.928 126.725C142.897 126.64 143.416 126.884 143.502 127.422L143.818 128.958C143.834 127.755 143.999 127.105 144.293 126.982L144.262 126.95ZM145.474 129.351L145.379 128.353C145.395 128.787 145.316 129.218 145.148 129.62C145.075 129.731 144.98 129.822 144.832 129.889L144.521 129.984C144.395 130.025 144.268 130.054 144.141 130.066C144.73 130.016 145.091 130.161 145.091 130.494L145.259 131.431C145.259 130.69 145.354 130.301 145.554 130.228C145.792 130.129 146.04 130.057 146.295 130.012C145.75 130.044 145.459 129.816 145.408 129.379" fill="white"/>
<path d="M125.183 121.216C125.012 119.468 124.772 118.603 124.442 118.682C123.176 118.777 121.355 118.793 118.853 118.746C119.036 119.041 119.274 119.298 119.556 119.502C120.188 120.03 120.91 120.44 121.687 120.712C122.067 120.852 122.457 120.966 122.853 121.051C122.935 121.07 123.296 121.136 123.714 121.197C124.347 121.292 125.186 121.377 125.18 121.241L125.183 121.216ZM125.38 131.178L125.405 131.115C125.399 131.137 125.392 131.156 125.383 131.178H125.38V131.178ZM118.97 126.07C118.916 127.231 119.072 128.392 119.433 129.496C119.504 129.964 119.667 130.412 119.913 130.816C120.158 131.22 120.482 131.571 120.864 131.849C121.64 132.16 122.498 132.166 123.296 131.954C124.11 131.852 124.87 131.504 125.513 130.95C125.972 130.433 126.239 129.773 126.269 129.082C126.307 127.568 125.991 126.067 125.319 124.696C125.074 124.092 124.711 123.543 124.252 123.081C123.188 122.131 121.605 122.067 120.465 122.922C120.053 123.258 119.73 123.682 119.515 124.17C119.221 124.765 119.037 125.409 118.973 126.07H118.97Z" fill="white"/>
<path d="M122.269 126.95C121.875 126.801 121.468 126.686 121.053 126.608C121.94 126.672 122.402 126.314 122.485 125.538L122.649 123.955C122.617 124.658 122.754 125.358 123.048 125.997C123.15 126.175 123.295 126.32 123.469 126.425L123.998 126.593C124.195 126.662 124.397 126.707 124.606 126.726C123.637 126.64 123.112 126.884 123.032 127.422L122.716 128.958C122.7 127.755 122.535 127.106 122.241 126.982L122.269 126.95ZM121.053 129.351L121.155 128.353C121.141 128.786 121.22 129.217 121.386 129.617C121.455 129.724 121.55 129.816 121.664 129.886L121.981 129.981C122.108 130.022 122.234 130.051 122.361 130.063C121.769 130.013 121.411 130.158 121.411 130.491L121.246 131.428C121.246 130.687 121.145 130.298 120.952 130.225C120.714 130.126 120.465 130.053 120.211 130.009C120.756 130.041 121.05 129.813 121.098 129.376L121.053 129.351ZM84.7696 199.283L84.0001 200.857C83.7752 201.345 83.6442 201.87 83.6137 202.406V202.412C83.6042 202.77 83.7499 203.109 84.0096 203.356C84.322 203.62 84.69 203.811 85.0862 203.913C86.0023 204.127 86.9419 204.224 87.8824 204.201L88.3891 204.204L101.325 204.052L102.212 204.049L103.257 204.052L106.354 203.938C110.47 203.577 114.286 201.405 116.74 198.074C117.322 197.194 117.888 196.304 118.438 195.404L121.649 190.205L128.28 179.359L133.115 171.702C133.154 171.643 133.207 171.595 133.269 171.561C133.33 171.526 133.399 171.508 133.47 171.505C133.612 171.499 133.742 171.581 133.786 171.702L138.631 179.359L148.47 195.401L150.171 198.071C151.38 199.734 152.933 201.119 154.724 202.131C156.515 203.144 158.502 203.76 160.551 203.938C161.581 204.026 162.614 204.064 163.648 204.052L164.699 204.049L165.586 204.052C168.426 204.084 171.269 204.116 174.117 204.147L178.55 204.201L179.057 204.198C179.754 204.207 180.451 204.161 181.141 204.062C181.793 203.999 182.417 203.755 182.933 203.349C183.063 203.23 183.165 203.083 183.233 202.92C183.302 202.758 183.334 202.582 183.329 202.406V202.393C183.297 201.855 183.171 201.332 182.949 200.81C182.721 200.262 182.426 199.714 182.176 199.249L181.644 198.333L170.688 178.383C166.539 170.657 162.393 162.93 158.249 155.203C158.195 155.099 158.186 154.975 158.227 154.865C158.268 154.754 158.353 154.662 158.461 154.618C163.854 152.414 168.265 147.873 171.929 143.351C176.799 137.144 181.125 130.526 184.865 123.581L188.655 116.291C185.749 120.669 182.146 124.541 177.99 127.755C171.878 132.679 161.523 137.571 146.941 142.321C132.902 146.909 122.574 152.25 115.958 158.345L109.327 164.244C107.924 165.71 106.546 167.198 105.191 168.709C101.844 172.522 98.7092 176.515 95.8022 180.673L92.5912 185.233L85.3079 198.333L84.7759 199.271" fill="white"/>
<path d="M195.046 105.867C194.913 106.18 194.72 106.465 194.479 106.706L193.542 107.751L193.536 107.757C192.94 108.504 192.386 109.283 191.87 110.088H191.873L189.581 113.942L184.568 123.48C180.837 130.408 176.524 137.008 171.664 143.198C168.012 147.714 163.633 152.204 158.326 154.377C158.136 154.456 157.977 154.614 157.908 154.814C157.838 155.013 157.854 155.232 157.952 155.447C162.107 163.167 166.255 170.894 170.397 178.627L181.354 198.545L181.886 199.486L182.646 201.022C182.852 201.47 182.973 201.952 183.003 202.444V202.459C183.016 202.725 182.908 202.985 182.712 203.166C182.237 203.523 181.677 203.742 181.084 203.799C180.41 203.894 179.732 203.935 179.051 203.932H178.497C177.06 203.932 175.609 203.894 174.153 203.881C171.307 203.848 168.463 203.816 165.622 203.786L164.849 203.78L163.646 203.783C162.616 203.783 161.6 203.77 160.615 203.675C158.613 203.5 156.671 202.898 154.921 201.91C153.17 200.922 151.651 199.57 150.466 197.947L149.886 197.06L138.942 179.251L134.097 171.588C133.961 171.375 133.724 171.246 133.47 171.246C133.217 171.246 132.983 171.372 132.843 171.588C132.84 171.594 129.183 177.319 127.998 179.251L121.377 190.037L118.169 195.23L117.061 196.997L116.481 197.884C114.084 201.171 110.382 203.257 106.332 203.615C105.35 203.71 104.337 203.723 103.302 203.723C102.903 203.723 102.5 203.72 102.098 203.72L101.326 203.726C98.4819 203.751 95.6383 203.783 92.7946 203.821L88.4499 203.872H87.8958C86.9838 203.894 86.0749 203.799 85.1883 203.593C84.8399 203.511 84.5138 203.346 84.2383 203.112C84.0419 202.931 83.9343 202.668 83.9533 202.402V202.39C83.9849 201.899 84.1053 201.414 84.3111 200.965C84.5328 200.436 84.8178 199.898 85.0648 199.429L85.5936 198.492L96.5503 178.573C100.694 170.847 104.838 163.12 108.983 155.393C109.084 155.21 109.1 154.988 109.03 154.76C108.96 154.532 108.808 154.402 108.612 154.323C103.305 152.154 98.9221 147.663 95.2741 143.145C90.4196 136.951 86.1034 130.351 82.3763 123.426L77.3634 113.888L75.0708 110.037C74.5546 109.233 74.0004 108.454 73.4051 107.706C73.1043 107.32 72.7559 106.978 72.4646 106.661C72.2239 106.422 72.0324 106.138 71.9009 105.825C71.8281 105.616 71.7869 105.398 71.7806 105.176C71.7679 104.999 71.8249 104.828 71.9389 104.685C72.2237 104.427 72.5826 104.264 72.9649 104.22C73.5587 104.116 74.161 104.07 74.7636 104.081L76.4736 104.106C79.1674 104.102 81.859 104.097 84.5486 104.093C86.4317 104.093 88.3159 104.092 90.2011 104.09H90.2233C92.3544 104.185 94.4191 104.85 96.1988 106.028C98.0636 107.213 99.8262 108.552 101.468 110.031C104.452 112.738 107.171 115.724 109.587 118.948C109.755 119.16 110.021 119.265 110.284 119.22C110.547 119.176 110.772 118.999 110.864 118.745C111.769 116.326 112.862 113.981 114.132 111.731L114.144 111.706C115.658 108.707 118.72 105.8 121.944 105.145C122.829 104.98 123.729 104.906 124.629 104.923L127.416 104.967H129.686H139.535L142.321 104.923C143.221 104.905 144.119 104.98 145.003 105.145C148.227 105.8 151.292 108.704 152.806 111.706L152.819 111.731C154.087 113.982 155.18 116.327 156.087 118.745C156.182 118.999 156.403 119.182 156.666 119.22C156.929 119.258 157.205 119.157 157.363 118.948C159.778 115.724 162.496 112.738 165.479 110.031C167.124 108.553 168.888 107.214 170.755 106.028C172.534 104.856 174.599 104.185 176.73 104.09H176.749C178.632 104.09 180.518 104.091 182.405 104.093C185.094 104.097 187.788 104.102 190.486 104.106H190.543L192.19 104.081C192.95 104.049 193.716 104.138 194.454 104.347C194.666 104.41 194.857 104.527 195.011 104.685C195.124 104.823 195.179 104.999 195.167 105.176C195.16 105.398 195.119 105.616 195.046 105.825V105.867ZM196.136 103.764C195.642 103.248 194.986 102.909 194.28 102.814C193.59 102.687 192.887 102.633 192.19 102.646L190.48 102.671C187.784 102.667 185.089 102.663 182.395 102.659C180.508 102.659 178.595 102.652 176.74 102.652H176.743H176.721C174.32 102.745 171.989 103.489 169.979 104.806C168.041 106.034 166.179 107.421 164.501 108.922C161.752 111.392 159.237 114.112 156.989 117.045C156.15 114.98 155.184 112.969 154.098 111.028C152.347 107.437 149.139 104.771 145.288 103.713C144.338 103.523 143.306 103.441 142.305 103.46L139.519 103.504H137.248H133.461H129.674H127.394C126.523 103.504 125.579 103.46 124.613 103.46C123.609 103.441 122.609 103.523 121.624 103.713C117.761 104.777 114.553 107.45 112.805 111.054C111.722 112.992 110.762 114.993 109.923 117.048C107.676 114.114 105.162 111.395 102.412 108.926C100.702 107.393 98.8746 106.006 96.9398 104.809C94.9296 103.493 92.599 102.748 90.1979 102.656H90.1568L84.5201 102.662C81.8263 102.666 79.1347 102.67 76.4451 102.675H76.3913C75.9574 102.675 75.3684 102.649 74.7446 102.649C73.809 102.614 72.8739 102.732 71.9769 103.001C71.5209 103.15 71.1115 103.415 70.7894 103.77C70.4468 104.177 70.2644 104.695 70.2764 105.227C70.2832 105.602 70.3472 105.973 70.4664 106.329C70.6612 106.84 70.9574 107.306 71.3373 107.7L72.2113 108.666C72.7749 109.372 73.3038 110.11 73.7946 110.873L76.0588 114.673L81.0621 124.173C84.8324 131.176 89.1951 137.842 94.1024 144.101C97.6491 148.477 101.943 152.93 107.292 155.362C103.259 162.856 99.2483 170.355 95.2583 177.858L83.7633 198.758L82.9463 200.42C82.6613 201.047 82.5029 201.718 82.4776 202.409V202.44C82.4748 202.77 82.5397 203.097 82.6682 203.4C82.7968 203.703 82.9863 203.977 83.2249 204.204C83.9121 204.774 84.7513 205.132 85.6379 205.227C86.3853 205.332 87.1421 205.385 87.8989 205.373H88.4626L101.351 205.224L102.111 205.221H103.314L106.487 205.104C110.965 204.708 115.053 202.396 117.697 198.764L118.331 197.804L129.287 179.976L132.137 175.441L133.489 173.32L134.838 175.441L137.688 179.976L144.319 190.825L147.534 196.031L148.642 197.804L149.269 198.764C150.577 200.559 152.254 202.054 154.188 203.148C156.121 204.242 158.266 204.91 160.479 205.107C161.534 205.197 162.593 205.236 163.652 205.224H164.855L165.615 205.227L178.51 205.376H179.074C180.119 205.401 181.164 205.287 182.186 205.04C182.766 204.895 183.304 204.606 183.751 204.207C184.242 203.745 184.511 203.099 184.501 202.425V202.409C184.475 201.721 184.316 201.044 184.033 200.417C183.773 199.793 183.463 199.214 183.209 198.751L182.658 197.776L171.721 177.889C167.699 170.395 163.675 162.896 159.649 155.393C165.001 152.961 169.285 148.509 172.835 144.133C177.744 137.874 182.109 131.207 185.882 124.205L190.885 114.705L193.149 110.905C193.638 110.143 194.165 109.407 194.726 108.698V108.704C194.929 108.441 195.265 108.109 195.604 107.735C195.984 107.343 196.28 106.877 196.474 106.367C196.595 106.012 196.658 105.639 196.664 105.259C196.677 104.727 196.493 104.207 196.151 103.802L196.136 103.764Z" fill="black"/>
<path d="M301.338 123.22C298.077 124.93 296.864 127.812 296.864 135.779C298.061 134.702 299.451 133.857 300.965 133.296C302.458 132.732 303.868 131.966 305.154 131.02C307.909 129.002 308.333 126.403 308.333 122.026C308.333 122.026 303.843 121.9 301.335 123.217" fill="black"/>
<path d="M282.006 125.082C280.306 126.739 279.114 128.847 278.57 131.159L269.767 165.254L262.446 137.35C261.733 134.382 260.451 130.715 258.418 128.236C255.827 125.076 250.564 124.879 250.001 124.879C249.437 124.879 244.174 125.076 241.584 128.236C239.551 130.715 238.265 134.379 237.553 137.35L230.269 165.254L221.466 131.159C220.925 128.846 219.734 126.736 218.033 125.079C213.727 121.279 207.26 122.093 207.26 122.093L224.113 185.812C224.113 185.812 229.674 186.211 232.454 184.793C236.109 182.931 237.847 181.493 240.061 172.823L248.056 140.776C248.31 139.978 248.633 138.068 250.036 138.068C251.47 138.068 251.765 139.975 252.015 140.776C252.521 142.359 258.041 165.096 260.011 172.823C262.221 181.49 263.963 182.931 267.611 184.793C270.391 186.211 275.952 185.812 275.952 185.812L292.798 122.093C292.798 122.093 286.338 121.279 282.025 125.079L282.006 125.082ZM308.356 132.467C307.428 133.695 306.248 134.71 304.895 135.443C303.35 136.305 301.868 136.89 300.278 137.654C297.612 138.933 296.89 140.358 296.89 142.53V185.787C296.89 185.787 301.142 186.325 303.92 184.907C307.498 183.083 308.353 181.322 308.353 173.399L308.356 132.467V132.467ZM350.333 154.108L371.715 122.305C371.715 122.305 362.69 120.769 358.225 124.838C355.984 127.073 353.956 129.511 352.167 132.121L344.301 143.464C344.187 143.821 343.964 144.133 343.662 144.354C343.361 144.576 342.997 144.697 342.623 144.699C341.853 144.699 341.175 144.202 340.944 143.433L333.1 132.15C331.311 129.541 329.285 127.102 327.043 124.867C322.609 120.801 313.553 122.333 313.553 122.333L334.934 154.136L313.606 185.841C313.606 185.841 323.005 187.025 327.47 182.991C329.579 180.916 331.465 178.625 333.097 176.157L340.966 164.814C341.08 164.457 341.304 164.146 341.605 163.924C341.907 163.702 342.27 163.581 342.645 163.579C343.414 163.579 344.092 164.076 344.323 164.846L352.189 176.189C353.899 178.643 355.84 180.929 357.984 183.022C362.417 187.088 371.686 185.872 371.686 185.872L350.362 154.168" fill="black"/>
</svg>
