<svg width="441" height="281" viewBox="0 0 441 281" fill="none" xmlns="http://www.w3.org/2000/svg">
<path d="M432.6 280.5H8.59961C4.19961 280.5 0.599609 276.9 0.599609 272.5V8.5C0.599609 4.1 4.19961 0.5 8.59961 0.5H432.6C437 0.5 440.6 4.1 440.6 8.5V272.5C440.6 276.9 437 280.5 432.6 280.5Z" fill="black"/>
<path d="M182.366 103.872C180.479 103.872 178.598 103.866 176.711 103.866C172.239 103.856 168.113 107.276 164.962 109.987C161.941 112.726 159.193 115.744 156.745 119.006C155.827 116.552 154.718 114.17 153.429 111.881C152.615 110.2 151.453 108.712 150.02 107.514C148.588 106.316 146.918 105.435 145.12 104.93C143.259 104.677 141.377 104.612 139.502 104.737C137.925 104.73 133.445 104.737 133.445 104.737C133.445 104.737 128.957 104.73 127.384 104.737C125.509 104.612 123.627 104.677 121.766 104.93C119.968 105.435 118.298 106.316 116.866 107.514C115.433 108.712 114.271 110.2 113.457 111.881C112.177 114.166 111.077 116.547 110.166 119.003C107.719 115.741 104.967 112.723 101.949 109.984C98.7918 107.273 94.672 103.853 90.1943 103.863L84.5386 103.869C81.8449 103.873 79.1532 103.877 76.4636 103.882C74.5003 103.891 70.162 103.375 71.188 106.567C71.4413 107.34 72.3153 108.033 72.8125 108.676L74.437 110.947L76.717 114.772L81.7203 124.304C85.4705 131.269 89.8099 137.901 94.691 144.127C98.3738 148.674 102.82 153.266 108.323 155.521C104.169 163.241 100.025 170.968 95.8911 178.701L84.3961 199.569C83.7568 200.574 83.347 201.709 83.196 202.891C83.1991 205.025 86.369 205.088 87.8826 205.098L92.791 205.047C95.6346 205.016 98.4783 204.984 101.322 204.952L106.389 204.838C108.497 204.653 110.541 204.019 112.383 202.978C114.226 201.936 115.824 200.513 117.07 198.803C117.887 197.663 125.531 185.123 128.628 180.056L133.464 172.405L138.296 180.056L149.854 198.803C151.101 200.513 152.699 201.936 154.541 202.978C156.383 204.019 158.427 204.653 160.535 204.838C162.214 204.997 163.924 204.933 165.602 204.952C168.444 204.98 171.287 205.011 174.133 205.047L179.041 205.098C180.555 205.088 183.728 205.025 183.728 202.891C183.579 201.706 183.168 200.573 182.525 199.566L181.986 198.609L171.039 178.701C166.893 170.974 162.745 163.247 158.594 155.521C164.104 153.263 168.547 148.674 172.23 144.127C177.113 137.901 181.454 131.27 185.204 124.304L190.213 114.772L192.493 110.947C193 110.164 193.538 109.404 194.115 108.676C194.764 108.062 195.312 107.346 195.742 106.567C196.768 103.375 192.43 103.891 190.47 103.882C187.772 103.877 185.077 103.873 182.385 103.869L182.366 103.872Z" fill="white"/>
<path d="M142.783 121.647L143.645 121.501C144.042 121.417 144.433 121.304 144.813 121.162C145.591 120.891 146.313 120.481 146.944 119.952C147.228 119.75 147.468 119.493 147.65 119.196C145.155 119.243 143.296 119.227 142.068 119.132C141.732 119.082 141.488 119.946 141.33 121.666C141.314 121.799 142.121 121.713 142.786 121.621L142.783 121.647ZM130.212 133.252C130.18 133.284 130.164 133.335 130.164 133.379C130.164 133.423 130.196 133.487 130.234 133.522C130.351 133.632 130.481 133.731 130.614 133.819C131.405 134.345 132.333 134.617 133.28 134.605C134.23 134.622 135.163 134.348 135.953 133.819C136.093 133.73 136.226 133.631 136.352 133.522C136.447 133.442 136.491 133.319 136.421 133.205C136.333 133.116 136.193 133.116 136.105 133.199L135.747 133.468H135.744C135.01 133.937 134.157 134.186 133.286 134.186C132.415 134.186 131.563 133.937 130.829 133.468H130.823C130.706 133.384 130.594 133.294 130.487 133.199C130.449 133.167 130.398 133.148 130.345 133.151C130.291 133.154 130.243 133.183 130.212 133.214V133.252ZM141.149 131.618C141.139 131.598 141.131 131.577 141.124 131.555C141.13 131.577 141.14 131.599 141.156 131.618H141.149ZM147.03 124.639C146.812 124.155 146.486 123.729 146.077 123.391C144.937 122.536 143.353 122.6 142.286 123.55C141.836 124.007 141.474 124.544 141.219 125.133C140.579 126.505 140.264 128.006 140.301 129.519C140.33 130.21 140.598 130.87 141.057 131.387C141.662 131.939 142.423 132.29 143.236 132.391C144.037 132.632 144.895 132.597 145.668 132.287C146.439 131.723 146.954 130.877 147.103 129.934C147.46 128.828 147.617 127.668 147.565 126.507C147.5 125.847 147.318 125.204 147.027 124.607L147.03 124.639Z" fill="black"/>
<path d="M144.262 127.426C144.656 127.276 145.063 127.162 145.478 127.084C144.591 127.147 144.129 126.789 144.046 126.013L143.882 124.43C143.913 125.133 143.777 125.833 143.489 126.472C143.386 126.65 143.239 126.797 143.061 126.9L142.533 127.068C142.338 127.138 142.134 127.183 141.928 127.201C142.897 127.115 143.416 127.359 143.502 127.897L143.818 129.433C143.834 128.23 143.999 127.581 144.293 127.457L144.262 127.426ZM145.474 129.826L145.379 128.828C145.395 129.262 145.316 129.693 145.148 130.095C145.075 130.206 144.98 130.298 144.832 130.364L144.521 130.459C144.395 130.5 144.268 130.529 144.141 130.542C144.73 130.491 145.091 130.637 145.091 130.969L145.259 131.906C145.259 131.165 145.354 130.776 145.554 130.703C145.792 130.605 146.04 130.532 146.295 130.488C145.75 130.519 145.459 130.291 145.408 129.854" fill="black"/>
<path d="M125.183 121.691C125.012 119.943 124.772 119.078 124.442 119.158C123.176 119.253 121.355 119.268 118.853 119.221C119.036 119.517 119.274 119.774 119.556 119.978C120.188 120.505 120.91 120.915 121.687 121.187C122.067 121.328 122.457 121.441 122.853 121.526C122.935 121.545 123.296 121.612 123.714 121.672C124.347 121.767 125.186 121.852 125.18 121.716L125.183 121.691ZM125.38 131.653L125.405 131.59C125.399 131.612 125.392 131.631 125.383 131.653H125.38ZM118.97 126.545C118.916 127.706 119.072 128.867 119.433 129.972C119.504 130.439 119.667 130.888 119.913 131.291C120.158 131.695 120.482 132.046 120.864 132.325C121.64 132.635 122.498 132.641 123.296 132.429C124.11 132.328 124.87 131.979 125.513 131.425C125.972 130.908 126.239 130.248 126.269 129.557C126.307 128.043 125.991 126.542 125.319 125.171C125.074 124.568 124.711 124.019 124.252 123.556C123.188 122.606 121.605 122.543 120.465 123.398C120.053 123.733 119.73 124.158 119.515 124.645C119.221 125.241 119.037 125.884 118.973 126.545H118.97Z" fill="black"/>
<path d="M122.269 127.426C121.875 127.276 121.468 127.162 121.053 127.084C121.94 127.147 122.402 126.789 122.485 126.013L122.649 124.43C122.617 125.133 122.754 125.833 123.048 126.473C123.15 126.65 123.295 126.796 123.469 126.9L123.998 127.068C124.195 127.138 124.397 127.182 124.606 127.201C123.637 127.115 123.112 127.359 123.032 127.898L122.716 129.433C122.7 128.23 122.535 127.581 122.241 127.457L122.269 127.426ZM121.053 129.826L121.155 128.829C121.141 129.261 121.22 129.692 121.386 130.092C121.455 130.2 121.55 130.292 121.664 130.361L121.981 130.456C122.108 130.497 122.234 130.526 122.361 130.539C121.769 130.488 121.411 130.634 121.411 130.966L121.246 131.903C121.246 131.162 121.145 130.773 120.952 130.7C120.714 130.601 120.465 130.529 120.211 130.485C120.756 130.516 121.05 130.288 121.098 129.851L121.053 129.826ZM84.7696 199.759L84.0001 201.333C83.7752 201.82 83.6442 202.345 83.6137 202.881V202.887C83.6042 203.245 83.7499 203.584 84.0096 203.831C84.322 204.095 84.69 204.286 85.0862 204.388C86.0023 204.602 86.9419 204.699 87.8824 204.677L88.3891 204.68L101.325 204.528L102.212 204.525L103.257 204.528L106.354 204.414C110.47 204.053 114.286 201.88 116.74 198.549C117.322 197.67 117.888 196.78 118.438 195.88L121.649 190.68L128.28 179.834L133.115 172.177C133.154 172.118 133.207 172.07 133.269 172.036C133.33 172.002 133.399 171.983 133.47 171.981C133.612 171.974 133.742 172.057 133.786 172.177L138.631 179.834L148.47 195.876L150.171 198.546C151.38 200.21 152.933 201.594 154.724 202.607C156.515 203.619 158.502 204.235 160.551 204.414C161.581 204.501 162.614 204.539 163.648 204.528L164.699 204.525L165.586 204.528C168.425 204.559 171.269 204.591 174.117 204.623L178.55 204.677L179.057 204.673C179.754 204.682 180.451 204.636 181.141 204.537C181.793 204.474 182.417 204.23 182.933 203.825C183.063 203.705 183.165 203.559 183.233 203.396C183.302 203.233 183.334 203.058 183.329 202.881V202.868C183.297 202.33 183.171 201.808 182.949 201.285C182.721 200.737 182.426 200.189 182.176 199.724L181.644 198.809L170.688 178.859C166.539 171.132 162.393 163.405 158.249 155.679C158.195 155.574 158.186 155.451 158.227 155.34C158.268 155.229 158.353 155.137 158.461 155.093C163.854 152.889 168.265 148.348 171.929 143.826C176.799 137.619 181.125 131.001 184.865 124.056L188.655 116.767C185.749 121.144 182.146 125.016 177.99 128.23C171.878 133.154 161.523 138.047 146.941 142.797C132.902 147.384 122.574 152.725 115.958 158.82L109.327 164.72C107.924 166.185 106.546 167.674 105.191 169.185C101.844 172.997 98.7092 176.99 95.8022 181.148L92.5912 185.708L85.3079 198.809L84.7759 199.746" fill="black"/>
<path d="M195.046 106.342C194.913 106.655 194.72 106.94 194.479 107.181L193.542 108.226L193.536 108.232C192.94 108.98 192.386 109.759 191.87 110.563H191.873L189.581 114.417L184.568 123.955C180.837 130.884 176.524 137.483 171.664 143.674C168.012 148.189 163.633 152.68 158.326 154.852C158.136 154.931 157.977 155.09 157.908 155.289C157.838 155.489 157.854 155.707 157.952 155.922C162.107 163.643 166.255 171.369 170.397 179.102L181.354 199.021L181.886 199.961L182.646 201.497C182.852 201.945 182.973 202.427 183.003 202.919V202.935C183.016 203.201 182.908 203.46 182.712 203.641C182.237 203.999 181.677 204.217 181.084 204.274C180.41 204.369 179.732 204.41 179.051 204.407H178.497C177.06 204.407 175.609 204.369 174.153 204.357C171.307 204.323 168.463 204.291 165.622 204.262L164.849 204.255L163.646 204.258C162.616 204.258 161.6 204.246 160.615 204.151C158.613 203.975 156.671 203.373 154.921 202.385C153.17 201.397 151.651 200.046 150.466 198.422L149.886 197.536L138.942 179.726L134.097 172.063C133.961 171.851 133.724 171.721 133.47 171.721C133.217 171.721 132.983 171.848 132.843 172.063C132.84 172.069 129.183 177.795 127.998 179.726L121.377 190.512L118.169 195.705L117.061 197.472L116.481 198.359C114.084 201.646 110.382 203.733 106.332 204.091C105.35 204.186 104.337 204.198 103.302 204.198C102.903 204.198 102.5 204.195 102.098 204.195L101.326 204.201C98.4819 204.227 95.6383 204.258 92.7946 204.296L88.4499 204.347H87.8958C86.9838 204.369 86.0749 204.274 85.1883 204.068C84.8399 203.986 84.5138 203.821 84.2383 203.587C84.0419 203.407 83.9343 203.144 83.9533 202.878V202.865C83.9849 202.374 84.1053 201.89 84.3111 201.44C84.5328 200.911 84.8178 200.373 85.0648 199.904L85.5936 198.967L96.5503 179.049C100.694 171.322 104.838 163.595 108.983 155.869C109.084 155.685 109.1 155.463 109.03 155.235C108.96 155.007 108.808 154.877 108.612 154.798C103.305 152.629 98.9221 148.139 95.2741 143.62C90.4196 137.426 86.1034 130.827 82.3763 123.901L77.3634 114.363L75.0708 110.512C74.5546 109.708 74.0004 108.929 73.4051 108.182C73.1043 107.795 72.7559 107.453 72.4646 107.137C72.2239 106.898 72.0324 106.614 71.9009 106.301C71.8281 106.092 71.7869 105.873 71.7806 105.652C71.7679 105.474 71.8249 105.303 71.9389 105.161C72.2237 104.902 72.5826 104.739 72.9649 104.695C73.5587 104.591 74.161 104.545 74.7636 104.556L76.4736 104.581C79.1674 104.577 81.859 104.573 84.5486 104.569C86.4317 104.569 88.3159 104.568 90.2011 104.565H90.2233C92.3544 104.66 94.4191 105.325 96.1988 106.503C98.0636 107.689 99.8262 109.028 101.468 110.506C104.452 113.213 107.171 116.199 109.587 119.423C109.755 119.636 110.021 119.74 110.284 119.696C110.547 119.651 110.772 119.474 110.864 119.221C111.769 116.802 112.862 114.456 114.132 112.207L114.144 112.181C115.658 109.182 118.72 106.275 121.944 105.62C122.829 105.455 123.729 105.381 124.629 105.398L127.416 105.443H129.686H139.535L142.321 105.398C143.221 105.381 144.119 105.455 145.003 105.62C148.227 106.275 151.292 109.179 152.806 112.181L152.819 112.207C154.087 114.457 155.18 116.802 156.087 119.221C156.182 119.474 156.403 119.658 156.666 119.696C156.929 119.734 157.205 119.632 157.363 119.423C159.778 116.2 162.496 113.214 165.479 110.506C167.124 109.028 168.888 107.689 170.755 106.503C172.534 105.332 174.599 104.66 176.73 104.565H176.749C178.632 104.565 180.518 104.567 182.405 104.569C185.094 104.573 187.788 104.577 190.486 104.581H190.543L192.19 104.556C192.95 104.524 193.716 104.613 194.454 104.822C194.666 104.886 194.857 105.002 195.011 105.161C195.124 105.299 195.179 105.474 195.167 105.652C195.16 105.873 195.119 106.092 195.046 106.301V106.342ZM196.136 104.239C195.642 103.723 194.986 103.384 194.28 103.289C193.59 103.163 192.887 103.109 192.19 103.121L190.48 103.147C187.784 103.143 185.089 103.138 182.395 103.134C180.508 103.134 178.595 103.128 176.74 103.128H176.743H176.721C174.32 103.22 171.989 103.965 169.979 105.281C168.041 106.51 166.179 107.897 164.501 109.398C161.752 111.868 159.237 114.587 156.989 117.52C156.15 115.456 155.184 113.445 154.098 111.504C152.347 107.913 149.139 105.246 145.288 104.189C144.338 103.999 143.306 103.916 142.305 103.935L139.519 103.98H137.248H133.461H129.674H127.394C126.523 103.98 125.579 103.935 124.613 103.935C123.609 103.916 122.609 103.999 121.624 104.189C117.761 105.253 114.553 107.925 112.805 111.529C111.722 113.467 110.762 115.468 109.923 117.523C107.676 114.589 105.162 111.87 102.412 109.401C100.702 107.868 98.8746 106.481 96.9398 105.284C94.9296 103.968 92.599 103.223 90.1979 103.131H90.1568L84.5201 103.137C81.8263 103.142 79.1347 103.146 76.4451 103.15H76.3913C75.9574 103.15 75.3684 103.125 74.7446 103.125C73.809 103.089 72.8739 103.208 71.9769 103.476C71.5209 103.625 71.1115 103.89 70.7894 104.246C70.4468 104.653 70.2644 105.17 70.2764 105.702C70.2832 106.077 70.3472 106.449 70.4664 106.804C70.6612 107.315 70.9574 107.782 71.3373 108.175L72.2113 109.141C72.7749 109.847 73.3038 110.585 73.7946 111.348L76.0588 115.148L81.0621 124.648C84.8324 131.651 89.1951 138.318 94.1024 144.576C97.6491 148.953 101.943 153.405 107.292 155.837C103.259 163.331 99.2483 170.83 95.2583 178.333L83.7633 199.233L82.9463 200.895C82.6613 201.522 82.5029 202.194 82.4776 202.884V202.916C82.4748 203.245 82.5397 203.572 82.6682 203.875C82.7968 204.179 82.9863 204.452 83.2249 204.68C83.9121 205.25 84.7513 205.607 85.6379 205.702C86.3853 205.807 87.1421 205.861 87.8989 205.848H88.4626L101.351 205.699L102.111 205.696H103.314L106.487 205.579C110.965 205.183 115.053 202.871 117.697 199.239L118.331 198.28L129.287 180.451L132.137 175.917L133.489 173.795L134.838 175.917L137.688 180.451L144.319 191.3L147.534 196.506L148.642 198.28L149.269 199.239C150.577 201.035 152.254 202.529 154.188 203.623C156.121 204.717 158.266 205.385 160.479 205.582C161.534 205.672 162.593 205.711 163.652 205.699H164.855L165.615 205.702L178.51 205.851H179.074C180.119 205.877 181.164 205.763 182.186 205.516C182.766 205.37 183.304 205.082 183.751 204.683C184.242 204.22 184.511 203.574 184.501 202.9V202.884C184.475 202.196 184.316 201.52 184.033 200.892C183.773 200.268 183.463 199.689 183.209 199.227L182.658 198.251L171.721 178.365C167.699 170.87 163.675 163.372 159.649 155.869C165.001 153.437 169.285 148.984 172.835 144.608C177.744 138.349 182.109 131.683 185.882 124.68L190.885 115.18L193.149 111.38C193.638 110.619 194.165 109.882 194.726 109.173V109.179C194.929 108.916 195.265 108.584 195.604 108.21C195.984 107.818 196.28 107.353 196.474 106.842C196.595 106.488 196.658 106.114 196.664 105.734C196.677 105.202 196.493 104.683 196.151 104.277L196.136 104.239Z" fill="white"/>
<path d="M301.338 123.695C298.077 125.405 296.864 128.287 296.864 136.254C298.061 135.178 299.451 134.332 300.965 133.772C302.458 133.207 303.868 132.441 305.154 131.495C307.909 129.478 308.333 126.878 308.333 122.502C308.333 122.502 303.843 122.375 301.335 123.692" fill="white"/>
<path d="M282.006 125.557C280.306 127.215 279.114 129.323 278.57 131.634L269.767 165.73L262.446 137.825C261.733 134.858 260.451 131.191 258.418 128.711C255.827 125.551 250.564 125.355 250.001 125.355C249.437 125.355 244.174 125.551 241.584 128.711C239.551 131.191 238.265 134.855 237.553 137.825L230.269 165.73L221.466 131.634C220.925 129.321 219.734 127.212 218.033 125.554C213.727 121.754 207.26 122.568 207.26 122.568L224.113 186.288C224.113 186.288 229.674 186.687 232.454 185.268C236.109 183.406 237.847 181.968 240.061 173.298L248.056 141.251C248.31 140.453 248.633 138.544 250.036 138.544C251.47 138.544 251.765 140.45 252.015 141.251C252.521 142.835 258.041 165.571 260.011 173.298C262.221 181.965 263.963 183.406 267.611 185.268C270.391 186.687 275.952 186.288 275.952 186.288L292.798 122.568C292.798 122.568 286.338 121.754 282.025 125.554L282.006 125.557ZM308.356 132.942C307.428 134.17 306.248 135.185 304.895 135.919C303.35 136.78 301.868 137.366 300.278 138.129C297.612 139.408 296.89 140.833 296.89 143.006V186.262C296.89 186.262 301.142 186.801 303.92 185.382C307.498 183.558 308.353 181.797 308.353 173.874L308.356 132.942ZM350.333 154.583L371.715 122.78C371.715 122.78 362.69 121.244 358.225 125.313C355.984 127.548 353.956 129.987 352.167 132.597L344.301 143.94C344.187 144.296 343.964 144.608 343.662 144.83C343.361 145.052 342.997 145.172 342.623 145.175C341.853 145.175 341.175 144.678 340.944 143.908L333.1 132.625C331.311 130.016 329.285 127.578 327.043 125.342C322.609 121.276 313.553 122.809 313.553 122.809L334.934 154.611L313.606 186.316C313.606 186.316 323.005 187.5 327.47 183.466C329.579 181.391 331.465 179.101 333.097 176.632L340.966 165.289C341.08 164.933 341.304 164.621 341.605 164.399C341.907 164.178 342.27 164.057 342.645 164.054C343.414 164.054 344.092 164.552 344.323 165.321L352.189 176.664C353.899 179.118 355.84 181.405 357.984 183.498C362.417 187.564 371.686 186.348 371.686 186.348L350.362 154.643" fill="white"/>
</svg>
